<svg width="24" height="24" viewBox="0 0 24 24" fill="none" xmlns="http://www.w3.org/2000/svg">
<g clip-path="url(#clip0)">
<path d="M22.3687 20.894L19.0507 6.3318C18.9585 5.87097 18.5899 5.59447 18.129 5.59447H15.6406V3.84332C15.6406 2.82949 14.8111 2 13.7972 2H10.0184C9.00461 2 8.17512 2.82949 8.17512 3.84332V5.5023H5.7788C5.31797 5.5023 4.94931 5.87097 4.85714 6.23963L2 20.894C2 21.1705 2 21.447 2.18433 21.6313C2.36866 21.8157 2.64516 22 2.92166 22H21.447C21.7235 22 22 21.9078 22.1843 21.6313C22.3687 21.447 22.4608 21.1705 22.3687 20.894ZM10.0184 3.84332H13.7972V5.5023H10.0184V3.84332ZM6.51613 7.34562H16.5622L14.0737 20.0645H4.02765L6.51613 7.34562Z" fill="#373737"/>
</g>
<defs>
<clipPath id="clip0">
<rect width="20.3687" height="20" fill="white" transform="translate(2 2)"/>
</clipPath>
</defs>
</svg>
