<svg xmlns="http://www.w3.org/2000/svg" viewBox="0 0 157.12 156.29"><g id="Layer_2" data-name="Layer 2"><g id="Capa_1" data-name="Capa 1"><path d="M157.12,46.34l-7.07-7.07L139.41,49.92l-22.67-3.36L147,16.26,140,9.19l-30.3,30.3L107.2,17.71,117.84,7.07,110.78,0,25.29,85.49,30,119.19l-30,30,7.07,7.07,30-30,34.59,5.57ZM62,87.13,59.57,65.34,74.33,50.58,76.8,72.36Zm21.82-7.7,22.68,3.36L91.77,97.55,69.1,94.19ZM130.35,59,115.59,73.73,92.92,70.37l14.76-14.76ZM100.62,48.55,85.85,63.31,83.38,41.52,98.15,26.76ZM35.75,89.16,50.51,74.4,53,96.18,38.53,111.37Zm9.16,28.59,15.14-14.5,22.67,3.36L68,121.37Z"/></g></g></svg>