<svg xmlns="http://www.w3.org/2000/svg" viewBox="0 0 135.06 159.88"><g id="Layer_2" data-name="Layer 2"><g id="Capa_1" data-name="Capa 1"><path d="M117.52,42.29V30h10V0H7.53V30h10v12.3C7.53,50-2.47,60,.55,87.7l9,72.18H125.45l9.06-72.18C137.53,60,127.53,50,117.52,42.29ZM17.52,10h100V20h-100Zm10,35.73V30h80V45.72s10,4.28,15.34,19.09H12.18C17.53,50,27.52,45.72,27.52,45.72Zm-9.1,104.17-.89-9.9h100l-.9,9.9ZM124.59,86.45l-5,43.55H15.5l-5-43.55a46.84,46.84,0,0,1-.18-11.65h114.5A50.59,50.59,0,0,1,124.59,86.45Z"/><path d="M67.52,89a6,6,0,1,0,6,6A6,6,0,0,0,67.52,89Z"/><path d="M87.53,99a6,6,0,1,0,6,6A6,6,0,0,0,87.53,99Z"/><path d="M47.53,99a6,6,0,1,0,6,6A6,6,0,0,0,47.53,99Z"/></g></g></svg>