<svg xmlns="http://www.w3.org/2000/svg" viewBox="0 0 161.57 161.54"><g id="Layer_2" data-name="Layer 2"><g id="Capa_1" data-name="Capa 1"><path d="M151.9,10.26c-.1-.11-.2-.22-.3-.31h0l-.16-.15C145.06,3.38,134.94,0,122.13,0c-14.2,0-31.37,4.2-48.34,11.82A172.49,172.49,0,0,0,24.63,45.14C8.94,60.41.43,78.38,0,97.1a63.58,63.58,0,0,0,18.31,46l.1.1A63.75,63.75,0,0,0,63,161.54h0c19.23,0,37.68-8.52,53.36-24.63,19.07-19.59,34-45.21,41-70.27S162.45,20.93,151.9,10.26ZM25.46,136.08c-1.05-1.48-1.5-6.61,3.76-16.8,4.06-7.86,12.66-21,30.64-38.77a447.41,447.41,0,0,1,54.41-46.18c16.77-11.85,25.82-15.7,29.52-16.58-.88,3.7-4.73,12.75-16.58,29.52A447.41,447.41,0,0,1,81,101.68c-17.81,18-30.91,26.58-38.77,30.64C32.07,137.58,26.93,137.13,25.46,136.08ZM10,97.32c.35-16,7.82-31.62,21.58-45C57.2,27.39,94.42,10,122.13,10a48.1,48.1,0,0,1,11,1.16c-8.23,3.84-17.83,10.14-25.74,15.78a460.3,460.3,0,0,0-54.6,46.48c-15,14.83-26.2,29.1-32.49,41.28a61.77,61.77,0,0,0-3.9,9.18A53,53,0,0,1,10,97.32ZM147.8,64c-6.57,23.51-20.62,47.56-38.57,66-13.75,14.13-29.72,21.6-46.19,21.6h0a53.06,53.06,0,0,1-25.35-6.45,61.63,61.63,0,0,0,9.16-3.9C59,134.91,73.3,123.67,88.13,108.71a460.18,460.18,0,0,0,46.47-54.6c5.63-7.89,11.92-17.47,15.77-25.68C152.5,37.56,151.69,50.06,147.8,64Z"/></g></g></svg>