<svg xmlns="http://www.w3.org/2000/svg" width="141.733" height="31.876" viewBox="0 0 141.733 31.876">
  <g id="Group_413" data-name="Group 413" transform="translate(-45.325 -45.113)">
    <path id="Path_6652" data-name="Path 6652" d="M70.645,48.41l.009.008.009.009c.064.063.126.126.189.189a14.673,14.673,0,0,1,15.736,0l.189-.189.009-.009.008-.008c.267-.251.491-.467.694-.666a15.928,15.928,0,0,0-17.536,0c.2.2.427.415.694.666" transform="translate(-17.456 0)" fill="#cad0d3"/>
    <path id="Path_6653" data-name="Path 6653" d="M121.522,62.219c-.281.381-.532.692-.771.961a14.709,14.709,0,0,1-6.736,24.146c.07.186.151.388.229.543a1.605,1.605,0,0,1,.168.609,15.932,15.932,0,0,0,7.11-26.259" transform="translate(-48.691 -12.126)" fill="#cad0d3"/>
    <path id="Path_6654" data-name="Path 6654" d="M56.973,87.868c.077-.155.16-.357.229-.542A14.709,14.709,0,0,1,50.466,63.18c-.239-.268-.49-.58-.771-.961a15.932,15.932,0,0,0,7.11,26.259,1.608,1.608,0,0,1,.168-.61" transform="translate(0 -12.126)" fill="#cad0d3"/>
    <path id="Path_6655" data-name="Path 6655" d="M79.837,45.131c-.4.1-.472-.143-2.16,1.416-1.087,1.1-1.5,1.587-2.732,2.746a4.887,4.887,0,0,1-3.189,1.759c-.2.072-1.331.415-1.331.415s-.3.057-.386-.015a4.185,4.185,0,0,0-.772-.315,6.505,6.505,0,0,0-1.1-.028l-.108.013a1.173,1.173,0,0,0-.276-.355c-.252-.189.084-.1-.546-.4a1.723,1.723,0,0,0-1.366-.231,3.885,3.885,0,0,1-1.239.273c-.252-.084-.105.084-.252.21s-.735.253-.483.315a.734.734,0,0,1,.378.214c-.12-.012-.242-.024-.363-.04a6.5,6.5,0,0,0-1.1.028,4.185,4.185,0,0,0-.772.315c-.086.072-.386.015-.386.015s-1.13-.343-1.331-.415a4.889,4.889,0,0,1-3.19-1.759c-1.23-1.159-1.645-1.645-2.732-2.746-1.688-1.559-1.759-1.316-2.16-1.416s-.043.229.272.472a14.742,14.742,0,0,1,1.816,2.145c1.659,2.518,2.16,2.947,3.333,3.834a8.743,8.743,0,0,0,3.275,1.2,6.153,6.153,0,0,1,.6.458c.116.09.538.088.544.19-.367.135-.582.222-1.819-.12-.483-.126-1.366-.4-2.941,1.407.231.357,1.47,2.227,3.34,1.807A4.591,4.591,0,0,0,61.892,56c-.017.548-.022.973-.013,1a2.481,2.481,0,0,1-.071.53,2.171,2.171,0,0,1-.3.715.561.561,0,0,0-.129.486c.042.051-.021.13-.137.551a16.361,16.361,0,0,0-.56,3.165,4.2,4.2,0,0,0,.707,2.457,2.7,2.7,0,0,1,.21,1.5.705.705,0,0,0,.032.4,5.328,5.328,0,0,0,.813,1.5A5.053,5.053,0,0,1,63.13,70.3a7.377,7.377,0,0,0,.432,1.192c.137.222.084.4.116.633.222,1.835-.127,2.173-.2,2.289a1.842,1.842,0,0,0-.148.548,7.8,7.8,0,0,1-.5,1.329c-.232.464.507.507.717.475s.042-.011.18.126.443.169,1.065-.126.275-.971.211-1.087a1.619,1.619,0,0,1,.064-.9.61.61,0,0,0-.127-.591s-.126-1.234-.19-1.645a1.586,1.586,0,0,1,.074-.907,4.067,4.067,0,0,0,.306-.938.224.224,0,0,1,.085-.2c.031-.031.221-.327.432-.633.174-.253.255-.453.326-.485v-.045H66.1v.045c.071.032.151.232.326.485.211.306.4.6.432.633a.223.223,0,0,1,.085.2,4.094,4.094,0,0,0,.305.938,1.583,1.583,0,0,1,.074.907c-.063.411-.19,1.645-.19,1.645a.61.61,0,0,0-.127.591,1.618,1.618,0,0,1,.063.9c-.063.116-.411.791.211,1.087s.928.263,1.065.126-.031-.158.179-.126.95-.011.717-.475a7.785,7.785,0,0,1-.5-1.329,1.835,1.835,0,0,0-.148-.548c-.073-.116-.421-.454-.2-2.289.032-.232-.021-.411.116-.633a7.378,7.378,0,0,0,.432-1.192,5.048,5.048,0,0,1,.685-1.994,5.323,5.323,0,0,0,.812-1.5.705.705,0,0,0,.032-.4,2.7,2.7,0,0,1,.21-1.5,4.2,4.2,0,0,0,.707-2.457,16.35,16.35,0,0,0-.559-3.165c-.116-.421-.18-.5-.137-.551a.563.563,0,0,0-.129-.486,2.171,2.171,0,0,1-.3-.715A2.482,2.482,0,0,1,70.2,57c.009-.023.005-.368-.008-.834a3.159,3.159,0,0,0,1.585.5,3.96,3.96,0,0,0,2.9-1.912,2.531,2.531,0,0,0-2.6-1.449,4.227,4.227,0,0,1-2.026.273.33.33,0,0,0-.031-.114c-.115-.143.4-.129.529-.229a6.151,6.151,0,0,1,.6-.458,8.746,8.746,0,0,0,3.275-1.2c1.173-.887,1.674-1.316,3.333-3.834A14.725,14.725,0,0,1,79.565,45.6c.315-.243.673-.572.272-.472" transform="translate(-4.775)"/>
    <path id="Path_6656" data-name="Path 6656" d="M182.4,90.4V77.224h3.426v4.989h.245c3.37,0,3.2-2.523,3.2-4.989h3.464c0,2.692.075,5.177-2.541,6.852l3.576,5.8V90.4h-3.746l-2.9-5.1a7.649,7.649,0,0,1-1.3.075V90.4Z" transform="translate(-97.168 -22.762)"/>
    <path id="Path_6657" data-name="Path 6657" d="M250.231,88.333h-5.2l-.772,1.657H240.97V89.5l5.93-12.857h1.449L254.3,89.5v.489H251Zm-2.617-6.344-1.487,3.464h3.012Z" transform="translate(-138.683 -22.35)"/>
    <path id="Path_6658" data-name="Path 6658" d="M316.4,86.015c0,2.88-2.372,4.537-5.083,4.537s-4.932-1.657-4.932-4.537V84.3h3.181v1.657a1.569,1.569,0,0,0,1.751,1.581,1.47,1.47,0,0,0,1.637-1.581V80.217h-1.92V77.224H316.4Z" transform="translate(-185.054 -22.762)"/>
    <path id="Path_6659" data-name="Path 6659" d="M372.019,88.333h-5.2l-.772,1.657h-3.294V89.5l5.93-12.857h1.45L376.085,89.5v.489h-3.294ZM369.4,81.989l-1.487,3.464h3.012Z" transform="translate(-225.012 -22.35)"/>
    <path id="Path_6660" data-name="Path 6660" d="M441.976,90.4h-3.445v-5.29h-4.066V90.4H431.02V77.224h3.445v4.782h4.066V77.224h3.445Z" transform="translate(-273.4 -22.762)"/>
    <path id="Path_6661" data-name="Path 6661" d="M503.475,85.959V77.224h3.219v8.791c0,2.9-2.5,4.575-5.215,4.575-2.692,0-5.233-1.676-5.233-4.575V77.224h3.219v8.735c0,1.073,1.035,1.6,2.014,1.6s2-.527,2-1.6" transform="translate(-319.635 -22.762)"/>
  </g>
</svg>
