<svg xmlns="http://www.w3.org/2000/svg" viewBox="0 0 160 160"><g id="Layer_2" data-name="Layer 2"><g id="Capa_1" data-name="Capa 1"><path d="M158.48,51.72a41.84,41.84,0,0,0-5.63-7.37,40.56,40.56,0,0,0-3.6-3.33,53.42,53.42,0,0,0,.15-26.79l-.73-2.9-2.9-.73A54,54,0,0,0,132.63,9,53,53,0,0,0,119,10.75a40.67,40.67,0,0,0-3.34-3.6,41.84,41.84,0,0,0-7.37-5.63L105.74,0l-2.55,1.49A40.52,40.52,0,0,0,95,7.88a40.07,40.07,0,0,0-7.2,9.78L11.29,94.13a38.59,38.59,0,0,0,54.58,54.58l76.44-76.43a41.27,41.27,0,0,0,16.2-15.47L160,54.26Zm-139.22,89a19.05,19.05,0,0,1,5.59-14.37L90.91,60.32A40.77,40.77,0,0,0,95,65a40.09,40.09,0,0,0,4.72,4L33.63,135.15A19.05,19.05,0,0,1,19.26,140.74Zm-.91-39.55L83.14,36.41A40.65,40.65,0,0,0,85.9,51.19L17.79,119.31a29.23,29.23,0,0,0-6.64,10.21A28.66,28.66,0,0,1,18.35,101.19Zm40.46,40.46a28.63,28.63,0,0,1-28.34,7.2,29.17,29.17,0,0,0,10.22-6.64l68.1-68.1a40.3,40.3,0,0,0,14.75,2.77h0ZM145.05,58a30.43,30.43,0,0,1-43-43,31.68,31.68,0,0,1,3.67-3.16,32.27,32.27,0,0,1,3,2.58,31.4,31.4,0,0,1,4.23,5l2.14,3.14,3.59-1.22A43,43,0,0,1,132.63,19a44.4,44.4,0,0,1,7.72.68,43.35,43.35,0,0,1-1.62,21.65l-1.22,3.59L140.65,47a31.51,31.51,0,0,1,7.56,7.28A32.45,32.45,0,0,1,145.05,58Z"/></g></g></svg>