<svg xmlns="http://www.w3.org/2000/svg" viewBox="0 0 161.54 160"><g id="Layer_2" data-name="Layer 2"><g id="Capa_1" data-name="Capa 1"><path d="M150.77,74.47V65.14a25.42,25.42,0,0,0,3.4-2.85,25.16,25.16,0,0,0,0-35.58L134.59,7.37A25.15,25.15,0,0,0,99,42.94L118.6,62.29a25,25,0,0,0,17.79,7.36c.46,0,.93,0,1.39,0v.22l-19.9,9.58C110.09,67.11,95.77,60,80.77,60S51.44,67.11,43.66,79.41l-19.9-9.58v-.22c.46,0,.92,0,1.39,0h0a25,25,0,0,0,17.79-7.36L62.37,42.94A25.15,25.15,0,1,0,26.8,7.37L7.37,26.71a25.16,25.16,0,0,0,0,35.58,25.42,25.42,0,0,0,3.4,2.85v9.44L39.31,88.41a43.31,43.31,0,0,0-2.15,9.42H10.77v10H37.16a44,44,0,0,0,2.15,9.43L16.59,128.19l4.33,9,22.75-11L49,134.66,33,153.77,40.77,160l16.75-20H104l16.75,20,7.81-6.23-16-19.11,5.32-8.42,22.74,11,4.34-9-22.72-10.95a43.88,43.88,0,0,0,2.15-9.43h26.39v-10H124.38a43.44,43.44,0,0,0-2.15-9.42Zm-44.69-38.6a15.17,15.17,0,0,1-2.93-17.3L129.32,44.5l-7.19,7.19Zm23.71,22.29L143.45,44.5l-33.24-33a15.18,15.18,0,0,1,17.31,2.94l19.59,19.35a15.17,15.17,0,0,1-17.32,24.38ZM55.3,35.87,39.41,51.69,32.22,44.5l26-25.93A15.16,15.16,0,0,1,55.3,35.87ZM14.43,33.78,33.86,14.43a15.18,15.18,0,0,1,17.31-2.94l-33.08,33L31.75,58.16a15.13,15.13,0,0,1-6.6,1.5h0A15.16,15.16,0,0,1,14.43,33.78ZM80.77,70c16.57,0,33.9,14.13,33.9,32.83,0,5.9-.75,12.23-3.9,17.17-1.65,2.58-7.1,10-7.1,10H57.87s-5.45-7.42-7.1-10c-3.15-4.94-3.9-11.27-3.9-17.17C46.87,84.13,64.09,70,80.77,70Z"/></g></g></svg>