<svg xmlns="http://www.w3.org/2000/svg" viewBox="0 0 160.01 160.18"><g id="Layer_2" data-name="Layer 2"><g id="Capa_1" data-name="Capa 1"><path d="M159.65.17,155.19.05c-1.1,0-2.21,0-3.31,0C125.76,0,104.34,7,83.6,22.34a28,28,0,0,0-36.9,2.42l-3.54,3.53,17,17A120.61,120.61,0,0,0,43.39,74.18a118.68,118.68,0,0,0-8.48,37.06,28,28,0,0,0-11.54-2.48,27.59,27.59,0,0,0-19.84,7.88L0,120.18l40,40,3.53-3.54A28,28,0,0,0,49,125.4a119.1,119.1,0,0,0,38.71-8.58,120.17,120.17,0,0,0,28-16L134,119.13l3.53-3.53a28,28,0,0,0,1.49-38A119.71,119.71,0,0,0,154.8,49.94C160,35.18,160.58,13.49,159.65.17ZM57.79,28.78a18.06,18.06,0,0,1,17.69.13c-1.59,1.41-3.16,2.86-4.69,4.36S68,36.13,66.6,37.6ZM39.17,145.55,14.62,121a18.07,18.07,0,0,1,24.55,24.55ZM45,115.18A108.29,108.29,0,0,1,77.79,40.4,112.29,112.29,0,0,1,97.62,24.92,64.6,64.6,0,0,0,113,49.34a64.74,64.74,0,0,0,23.24,14.91,113,113,0,0,1-15.76,19.32A109.05,109.05,0,0,1,45,115.18Zm90.76-19.41a17.94,17.94,0,0,1-2.25,8.74L123.45,94.44c1.35-1.22,2.68-2.46,4-3.75,1.74-1.71,3.43-3.48,5.06-5.28A18,18,0,0,1,135.76,95.77Zm5.55-40.31A54.68,54.68,0,0,1,120,42.28,54.53,54.53,0,0,1,106.52,20c14.52-7.16,27-9.73,43.48-10C150,26.53,148.8,41.08,141.31,55.46Z"/></g></g></svg>