<svg xmlns="http://www.w3.org/2000/svg" viewBox="0 0 160 161.54"><g id="Layer_2" data-name="Layer 2"><g id="Capa_1" data-name="Capa 1"><path d="M160,67.1c0-14.23-4.77-27.62-14.84-37.68L131.35,15.61a53.28,53.28,0,0,0-75.36,0A53.12,53.12,0,0,0,40.47,56.33C16.87,61.81,0,83.81,0,109.05a52,52,0,0,0,52.52,52.49H72.05a53.39,53.39,0,0,0,52.47-43.94,53.32,53.32,0,0,0,20.64-12.82C155.23,94.72,160,81.33,160,67.1ZM138.1,36.48A44.15,44.15,0,0,1,143.43,43a26.69,26.69,0,0,1-18.58-7.88A26.88,26.88,0,0,1,117,16.79a43.92,43.92,0,0,1,7.31,5.88ZM52.52,65H72.05a43.28,43.28,0,0,1,8.34.81,26.89,26.89,0,0,1-37.18.2A43.26,43.26,0,0,1,52.52,65Zm19.53,86.6H52.52A42,42,0,0,1,10,109.05c0-16.86,8.91-32.3,23-39.44a36.88,36.88,0,0,0,57.71-.43,43.3,43.3,0,0,1-18.66,82.37Zm53.26-45A53.35,53.35,0,0,0,72.05,55H52.52c-.71,0-1.41,0-2.12,0A43.3,43.3,0,0,1,93.67,10a43.38,43.38,0,0,1,13.52,2.15,36.82,36.82,0,0,0,10.59,30,36.55,36.55,0,0,0,26,10.82,35.32,35.32,0,0,0,4.58-.29C149.76,56.11,150,62.1,150,67.1c0,11.57-3.73,22.44-11.9,30.62A43.41,43.41,0,0,1,125.31,106.56Z"/></g></g></svg>