<svg xmlns="http://www.w3.org/2000/svg" viewBox="0 0 161.54 140"><g id="Layer_2" data-name="Layer 2"><g id="Capa_1" data-name="Capa 1"><path d="M137.88,23.66A80.77,80.77,0,0,0,0,80.77v2.6L50.77,120v20h60V120l50.77-36.63v-2.6A80.22,80.22,0,0,0,137.88,23.66ZM85.77,110V10.17a70.45,70.45,0,0,1,41.66,17.42L91.41,110Zm-15.64,0-36-82.41A70.45,70.45,0,0,1,75.77,10.17V110ZM10,78.2A70.45,70.45,0,0,1,26.58,35.29L59.21,110H54.55ZM60.76,130V120h40v10ZM107,110h-4.66L135,35.29A70.45,70.45,0,0,1,151.5,78.2Z"/></g></g></svg>