<svg xmlns="http://www.w3.org/2000/svg" viewBox="0 0 161.49 161.54"><g id="Layer_2" data-name="Layer 2"><g id="Capa_1" data-name="Capa 1"><path d="M147.06,14.45a49.35,49.35,0,0,0-69.78,0C68.21,23.53,65,31.2,62.2,38,59.93,43.42,58,48.14,53,53.06S43.4,60,38,62.22c-6.77,2.82-14.44,6-23.52,15.09a49.34,49.34,0,0,0,69.78,69.78c9.08-9.08,12.27-16.75,15.09-23.52,2.27-5.46,4.23-10.17,9.15-15.09s9.64-6.89,15.1-9.16c6.77-2.82,14.44-6,23.51-15.09A49.39,49.39,0,0,0,147.06,14.45Zm-9.79,17.88c-3.22,6.44-8.51,13.7-15.09,20.74a92.82,92.82,0,0,0-13.73-13.73c7-6.58,14.29-11.87,20.74-15.09,7.46-3.73,10.51-3,10.81-2.73S141,24.87,137.27,32.33ZM87,126.52c-.28,0-.57,0-.87,0-4.63,0-10.87-1.87-17.65-5.77A175,175,0,0,0,80.39,106.4C83,103,85.45,99.73,88.88,96l9.17,9.17c-4,5-6,9.86-8,14.59C89.15,122,88.21,124.2,87,126.52ZM52.89,108.63a79.94,79.94,0,0,1-6.46-7.27A160.78,160.78,0,0,1,61.16,89.09a147.54,147.54,0,0,0,11.46-9.38l9.19,9.19a145.68,145.68,0,0,0-9.38,11.46,161.13,161.13,0,0,1-12.28,14.73A83,83,0,0,1,52.89,108.63ZM74.45,35c4.7-.26,11.31,1.6,18.53,5.74A174.89,174.89,0,0,0,81.1,55.14c-2.58,3.41-5.06,6.67-8.49,10.43L63.44,56.4c4-5,6-9.86,8-14.59C72.35,39.59,73.28,37.34,74.45,35Zm5.23,37.62a141.31,141.31,0,0,0,9.38-11.46,161.13,161.13,0,0,1,12.28-14.73,82.57,82.57,0,0,1,13.73,13.73,162.44,162.44,0,0,1-14.73,12.27,143.87,143.87,0,0,0-11.46,9.38ZM112.17,10a39.27,39.27,0,0,1,16.41,3.56c-9.06,3.64-19.41,11.22-28.41,19.87a69.94,69.94,0,0,0-7.84-4.24,48.06,48.06,0,0,0-11.6-3.71c1.07-1.28,2.26-2.6,3.62-3.95A39.09,39.09,0,0,1,112.17,10ZM41.78,71.44c4.73-2,9.59-4,14.6-8l9.16,9.17c-3.75,3.43-7,5.91-10.42,8.49A175.27,175.27,0,0,0,40.74,93c-4.15-7.22-6-13.82-5.74-18.52C37.32,73.3,39.57,72.37,41.78,71.44ZM21.49,84.37c1.36-1.35,2.68-2.55,4-3.62a47.4,47.4,0,0,0,3.71,11.61,68.13,68.13,0,0,0,4.23,7.83c-8.63,9-16.21,19.34-19.85,28.39A39.43,39.43,0,0,1,21.49,84.37Zm2.73,44.84c3.23-6.44,8.52-13.7,15.09-20.74a93.23,93.23,0,0,0,6.51,7.22A91,91,0,0,0,53,122.2c-7,6.58-14.29,11.87-20.74,15.09-7.45,3.73-10.51,3-10.81,2.73S20.5,136.67,24.22,129.21Zm25.1,22.34A39.12,39.12,0,0,1,32.91,148c9.06-3.63,19.41-11.21,28.41-19.86a69.24,69.24,0,0,0,7.8,4.22,48.06,48.06,0,0,0,11.65,3.73c-1.07,1.28-2.27,2.6-3.63,4A39.09,39.09,0,0,1,49.32,151.55Zm70.39-61.46c-4.73,2-9.59,4-14.59,8L96,88.91c3.76-3.44,7-5.91,10.42-8.5a173.17,173.17,0,0,0,14.38-11.87c4.15,7.22,6,13.83,5.74,18.52C124.17,88.23,121.93,89.17,119.71,90.09ZM140,77.17c-1.36,1.35-2.67,2.55-3.95,3.62a47.67,47.67,0,0,0-3.74-11.65,69,69,0,0,0-4.21-7.79C136.74,52.35,144.32,42,148,33A39.43,39.43,0,0,1,140,77.17Z"/></g></g></svg>