<svg xmlns="http://www.w3.org/2000/svg" viewBox="0 0 150 149.57"><g id="Layer_2" data-name="Layer 2"><g id="Capa_1" data-name="Capa 1"><path d="M77.71,71.33,75,69.57l-2.71,1.76c-20.35,13.15-31.1,26.78-31.1,44.43a33.81,33.81,0,0,0,67.62,0C108.81,98.11,98.06,84.48,77.71,71.33ZM75,139.58a23.85,23.85,0,0,1-23.82-23.82C51.18,99.27,63.56,89.5,75,81.54c11.44,8,23.82,17.73,23.82,34.22A23.85,23.85,0,0,1,75,139.58Z"/><path d="M66.05,64.49l3.08-.95.41-3.2c3-24-.46-41-14-52.41A33.81,33.81,0,0,0,12,59.67C25.53,71,42.88,71.58,66.05,64.49Zm-50.48-46a23.86,23.86,0,0,1,33.57-2.89C61.76,26.19,61.26,42,60,55.84c-13.46,3.63-28.9,6.8-41.52-3.82A23.85,23.85,0,0,1,15.57,18.46Z"/><path d="M84,64.49l-3.08-.95-.41-3.2c-3-24,.46-41,14-52.41A33.81,33.81,0,0,1,138,59.67C124.47,71,107.12,71.58,84,64.49Zm50.48-46a23.86,23.86,0,0,0-33.57-2.89C88.24,26.19,88.74,42,90,55.84c13.46,3.63,28.9,6.8,41.52-3.82A23.85,23.85,0,0,0,134.43,18.46Z"/></g></g></svg>