<svg xmlns="http://www.w3.org/2000/svg" viewBox="0 0 161.53 160"><g id="Layer_2" data-name="Layer 2"><g id="Capa_1" data-name="Capa 1"><path d="M80.76,70a10,10,0,1,1-7.08,2.93A10,10,0,0,1,80.76,70m0-10a20,20,0,1,0,14.15,5.86A19.89,19.89,0,0,0,80.76,60Z"/><path d="M115.76,35a10,10,0,1,1-7.08,2.94A10,10,0,0,1,115.76,35m0-10a20,20,0,1,0,14.15,5.86A19.89,19.89,0,0,0,115.76,25Z"/><path d="M45.76,105a10,10,0,1,1-7.08,2.94A10,10,0,0,1,45.76,105m0-10a20,20,0,1,0,14.15,5.86A19.89,19.89,0,0,0,45.76,95Z"/><path d="M154.86,8.67l-.7-1.29-1.29-.71A55,55,0,0,0,74.19,38.38,55,55,0,0,0,38.37,74.2,55,55,0,0,0,.5,119.11c-1.58,11.57.61,21.56,6.16,31.76l.71,1.3,1.29.7A55.51,55.51,0,0,0,34.93,160h0c14.68,0,28.48-4.17,38.86-14.55a55,55,0,0,0,13.54-22.28,55.08,55.08,0,0,0,35.83-35.83A55,55,0,0,0,145.44,73.8,54.43,54.43,0,0,0,161,42.43,55.29,55.29,0,0,0,154.86,8.67ZM138.37,66.73a45,45,0,0,1-20.5,11.74L115,79.2l-.74,2.85a45,45,0,0,1-32.23,32.24l-2.86.74-.73,2.85a45,45,0,0,1-11.74,20.5C58.23,146.87,46.94,150,34.93,150a45.5,45.5,0,0,1-20.18-5.22c-8.61-17.15-5.25-36.32,8.4-50a44.85,44.85,0,0,1,20.5-11.73l2.86-.74.73-2.85A45,45,0,0,1,79.48,47.25l2.85-.74.74-2.85a45,45,0,0,1,63.7-28.9A45.22,45.22,0,0,1,138.37,66.73Z"/></g></g></svg>