<svg id="Component_7_1" data-name="Component 7 – 1" xmlns="http://www.w3.org/2000/svg" width="41.533" height="48.13" viewBox="0 0 41.533 48.13">
  <path id="Path_2053" data-name="Path 2053" d="M53.772,68.073,45.53,58.867l-2.658,2.969L33,50.771l18.431-20.63a2.954,2.954,0,0,1,4.561-.135L74.533,50.771,64.651,61.835l-2.658-2.969ZM45.53,52.688,53.772,61.9l8.221-9.212,2.658,2.974,4.058-4.891L55.448,35.609c-1.135-1.3-2.093-1.439-3.318-.038l-13.294,15.2,4.052,4.891Z" transform="translate(-33 -28.996)" fill="#fff"/>
  <path id="Path_2056" data-name="Path 2056" d="M407.02,530.485l5.88,6.339,5.852-6.339V536.6l-5.852,6.5-5.88-6.5Z" transform="translate(-392.092 -494.962)" fill="#30bf60"/>
</svg>
