<svg xmlns="http://www.w3.org/2000/svg" width="21.128" height="25.514" viewBox="0 0 21.128 25.514"><path d="M6.812,25.514c-1.672,0-2.894-1.546-4.1-3.267C.294,18.8-1.1,13.122,1.091,9.379A6.477,6.477,0,0,1,6.531,6.128H6.6a7.323,7.323,0,0,1,2.633.659,4.79,4.79,0,0,0,1.5.433,4.89,4.89,0,0,0,1.446-.426,8.46,8.46,0,0,1,3.019-.744c.143,0,.284.007.42.02a6.143,6.143,0,0,1,4.81,2.577.206.206,0,0,1,.033.159.208.208,0,0,1-.092.134l-.021.013a5.481,5.481,0,0,0-2.628,4.587,5.34,5.34,0,0,0,3.273,4.882l.008,0,.008,0a.208.208,0,0,1,.113.256l-.007.023a13.954,13.954,0,0,1-1.78,3.6c-1.021,1.471-2.177,3.139-4.063,3.174h-.079A4.64,4.64,0,0,1,13.217,25l-.006,0a4.961,4.961,0,0,0-2.146-.51,5.268,5.268,0,0,0-2.255.527,5.115,5.115,0,0,1-1.9.5Zm3.974-19.3c-.092,0-.184,0-.274-.01a.212.212,0,0,1-.194-.181,5.416,5.416,0,0,1,1.4-4.047A5.934,5.934,0,0,1,15.617,0h.008a.214.214,0,0,1,.212.187,5.7,5.7,0,0,1-1.37,4.163A5.015,5.015,0,0,1,10.787,6.211Z" fill="#323232"/></svg>