<svg xmlns="http://www.w3.org/2000/svg" width="26" height="26" viewBox="0 0 26 26"><path d="M278.159,213.9H267.547a.846.846,0,0,0-.847.847v3.393a.846.846,0,0,0,.847.847h5.977a7.967,7.967,0,0,1-3.432,4.022l2.546,4.412a12.758,12.758,0,0,0,6.5-11.153,8.79,8.79,0,0,0-.145-1.666A.857.857,0,0,0,278.159,213.9Z" transform="translate(-253.14 -203.17)" fill="#167ee6"/><path d="M65.659,329.461a7.915,7.915,0,0,1-6.847-3.961L54.4,328.04a13,13,0,0,0,17.765,4.769V332.8l-2.546-4.412a7.849,7.849,0,0,1-3.961,1.07Z" transform="translate(-52.651 -308.553)" fill="#12b347"/><path d="M263,381.818v-.006l-2.546-4.412a7.869,7.869,0,0,1-3.955,1.07v5.092A12.951,12.951,0,0,0,263,381.818Z" transform="translate(-243.503 -357.561)" fill="#0f993e"/><path d="M28.092,144.4a7.869,7.869,0,0,1,1.07-3.955l-4.412-2.54a12.935,12.935,0,0,0,0,12.991l4.412-2.54A7.813,7.813,0,0,1,28.092,144.4Z" transform="translate(-23 -131.396)" fill="#ffd500"/><path d="M65.659,26.092a7.883,7.883,0,0,1,5.025,1.8.846.846,0,0,0,1.136-.05l2.4-2.4a.853.853,0,0,0-.05-1.248A12.965,12.965,0,0,0,54.4,27.512l4.412,2.54A7.915,7.915,0,0,1,65.659,26.092Z" transform="translate(-52.651 -21)" fill="#ff4b26"/><path d="M261.525,27.9a.846.846,0,0,0,1.136-.05l2.4-2.4a.853.853,0,0,0-.05-1.248A12.926,12.926,0,0,0,256.5,21v5.092A7.852,7.852,0,0,1,261.525,27.9Z" transform="translate(-243.504 -21)" fill="#d93f21"/></svg>