<svg id="Capa_1" enable-background="new 0 0 512 512" height="512" viewBox="0 0 512 512" width="512" xmlns="http://www.w3.org/2000/svg"><g><path d="m362.629 257.004h-.801l7.068-150.976c.194-4.138-3.003-7.649-7.141-7.842-4.137-.199-7.649 3.004-7.842 7.141l-7.101 151.677h-181.624l-7.101-151.677c-2.581-55.141-2.433-51.572-2.433-52.867 0-20.655 16.823-37.46 37.501-37.46h125.688c20.678 0 37.501 16.805 37.501 37.46 0 1.227.046-.098-1.028 22.849-.194 4.137 3.003 7.648 7.141 7.842 4.136.201 7.648-3.003 7.842-7.141 1.071-22.882 1.045-21.858 1.045-23.55 0-28.927-23.552-52.46-52.501-52.46h-125.687c-28.949 0-52.501 23.533-52.501 52.46 0 1.776-.156-2.089 2.45 53.568l7.068 150.976h-.801c-14.061 0-25.5 11.439-25.5 25.5v37.188c0 14.061 11.439 25.5 25.5 25.5h5.161v47.5c0 4.142 3.358 7.5 7.5 7.5s7.5-3.358 7.5-7.5v-47.5h22.515l-10.391 146.169c-.225 3.162-2.884 5.639-6.055 5.639-3.347 0-6.069-2.723-6.069-6.069v-63.239c0-4.142-3.358-7.5-7.5-7.5s-7.5 3.358-7.5 7.5v63.239c0 11.618 9.452 21.069 21.069 21.069 11.005 0 20.236-8.599 21.017-19.576l10.467-147.232h97.832l10.467 147.233c.778 10.976 10.01 19.575 21.014 19.575 11.618 0 21.069-9.452 21.069-21.069v-145.739h5.161c14.061 0 25.5-11.439 25.5-25.5v-37.188c0-14.061-11.439-25.5-25.5-25.5zm-20.161 233.927c0 3.347-2.723 6.069-6.069 6.069-3.17 0-5.83-2.477-6.055-5.639l-10.391-146.169h22.515zm30.661-171.239c0 5.79-4.71 10.5-10.5 10.5-23.196 0-190.269 0-213.259 0-5.79 0-10.5-4.71-10.5-10.5v-37.188c0-5.79 4.71-10.5 10.5-10.5h213.259c5.79 0 10.5 4.71 10.5 10.5z"/></g></svg>