<svg width="104" height="104" viewBox="0 0 104 104" fill="none" xmlns="http://www.w3.org/2000/svg">
<path d="M97.915 55.209C97.8154 54.0403 97.0633 53.0805 95.952 52.7041L86.9352 49.6507L95.7133 39.5797C96.2961 38.9112 96.5398 38.0272 96.3824 37.1546C96.2248 36.282 95.6871 35.5391 94.9073 35.1166L83.5824 28.9808C82.8424 28.58 81.9182 28.8546 81.517 29.5944C81.1162 30.3342 81.3911 31.2588 82.1306 31.6596L93.2999 37.7111L83.9454 48.4433L54.3984 32.4343L59.881 26.1445C60.5119 26.3761 61.1932 26.5024 61.9033 26.5024C64.1083 26.5024 66.0329 25.2831 67.041 23.484L75.5071 28.071C75.7378 28.1959 75.9863 28.2552 76.2314 28.2552C76.7726 28.2552 77.2964 27.9664 77.5725 27.4571C77.9733 26.7173 77.6984 25.7927 76.9586 25.392L67.7846 20.4217C67.6813 17.2661 65.0839 14.7305 61.9035 14.7305C58.658 14.7305 56.0175 17.3709 56.0175 20.6165C56.0175 22.0454 56.5298 23.3566 57.3797 24.3773L52.0001 30.5491L42.4692 19.615C41.5694 18.5826 40.1001 18.3171 38.8954 18.9695L35.1699 20.988C34.7334 17.5358 31.7805 14.8566 28.2118 14.8566C24.3434 14.8566 21.1962 18.0038 21.1962 21.8724C21.1962 24.0113 22.1596 25.9286 23.6739 27.2164L9.09272 35.1166C8.31312 35.5391 7.77565 36.2817 7.61782 37.1546C7.4604 38.0272 7.70415 38.9112 8.28692 39.5795L17.0648 49.6505L8.04824 52.7037C6.93694 53.0801 6.18476 54.0399 6.08523 55.2086C5.9857 56.3774 6.56461 57.4507 7.59608 58.0095L18.1844 63.7462V69.4965C18.1844 70.3379 18.8663 71.02 19.7079 71.02C20.5494 71.02 21.2313 70.3379 21.2313 69.4965V65.397L36.0449 73.423C36.6769 73.7654 37.3819 73.9395 38.0896 73.9395C38.5523 73.9395 39.0165 73.865 39.4617 73.7142L50.4769 69.9846V100.296L21.8805 84.8015C21.4802 84.5845 21.2315 84.1669 21.2315 83.7115V77.0173C21.2315 76.1759 20.5497 75.4938 19.7081 75.4938C18.8665 75.4938 18.1847 76.1759 18.1847 77.0173V83.7115C18.1847 85.2861 19.0445 86.7302 20.429 87.4803L49.9583 103.48C50.5977 103.826 51.2991 104 52.0005 104C52.7019 104 53.4033 103.826 54.0427 103.48L83.572 87.4803C84.9563 86.7302 85.8164 85.2861 85.8164 83.7115V63.746L96.4045 58.0093C97.4354 57.4511 98.0145 56.378 97.915 55.209ZM55.3679 43.4233C60.7008 44.9223 64.4253 49.84 64.4253 55.3823C64.4253 56.9257 64.1481 58.4235 63.6 59.8428L52.0001 66.1277L40.4002 59.8428C39.8523 58.4235 39.5749 56.9257 39.5749 55.3823C39.5749 49.8229 43.3136 44.901 48.6672 43.4131C49.4777 43.1878 49.9522 42.3479 49.7269 41.5374C49.5018 40.7268 48.6615 40.2525 47.8512 40.4775C41.1844 42.3306 36.5282 48.4596 36.5282 55.3823C36.5282 56.2172 36.5958 57.0412 36.7258 57.8521L22.9059 50.3643L52.0005 34.6005L81.0949 50.3645L67.275 57.8523C67.405 57.0414 67.4726 56.2174 67.4726 55.3825C67.4726 48.4809 62.8342 42.3571 56.1928 40.4901C55.3828 40.2622 54.5416 40.7347 54.3141 41.5443C54.0858 42.3544 54.5577 43.1956 55.3679 43.4233ZM61.9033 17.7778C63.4688 17.7778 64.7426 19.0514 64.7426 20.6169C64.7426 22.1824 63.4688 23.4562 61.9033 23.4562C60.3378 23.4562 59.0642 22.1824 59.0642 20.6169C59.0642 19.0514 60.3378 17.7778 61.9033 17.7778ZM28.2118 17.9039C30.4001 17.9039 32.1807 19.6843 32.1807 21.8728C32.1807 24.0611 30.4001 25.8417 28.2118 25.8417C26.0235 25.8417 24.2431 24.0613 24.2431 21.8728C24.2431 19.6843 26.0235 17.9039 28.2118 17.9039ZM27.1368 28.8061C27.4874 28.8603 27.8464 28.8886 28.2118 28.8886C31.0511 28.8886 33.4998 27.1923 34.6029 24.7608L40.247 21.703L49.6014 32.4347L20.0544 48.4437L10.6999 37.7116L27.1368 28.8061ZM38.4843 70.8288C38.1585 70.9393 37.7981 70.9083 37.4963 70.7445L20.4404 61.5037C20.4359 61.5013 20.4312 61.4988 20.4268 61.4964L9.33322 55.4859L19.5663 52.0208L48.2051 67.5376L38.4843 70.8288ZM82.7689 83.7121C82.7689 84.1675 82.52 84.5852 82.1199 84.8021L53.5235 100.296V69.9853L64.5387 73.7149C64.9839 73.8656 65.4481 73.9401 65.911 73.9401C66.6183 73.9401 67.3235 73.7658 67.9555 73.4236L82.7691 65.3976L82.7689 83.7121ZM66.5037 70.7445C66.2019 70.9083 65.8415 70.9393 65.5157 70.8288L55.7951 67.5376L84.4339 52.0208L94.667 55.4859L66.5037 70.7445ZM94.9747 55.5901V55.5901Z" fill="#373737"/>
<path d="M63.3933 86.2645L59.8986 88.158C59.1588 88.5588 58.8841 89.4834 59.2849 90.2232C59.5608 90.7322 60.0848 91.0213 60.6259 91.0213C60.8709 91.0213 61.1197 90.9619 61.3503 90.837L64.8451 88.9435C65.5849 88.5427 65.8595 87.6181 65.4587 86.8783C65.0579 86.1386 64.1337 85.8635 63.3933 86.2645V86.2645Z" fill="#373737"/>
<path d="M34.0628 12.8293C34.3604 13.1267 34.7504 13.2756 35.1402 13.2756C35.53 13.2756 35.92 13.1269 36.2176 12.8293L37.4743 11.5726L38.731 12.8293C39.0286 13.1267 39.4186 13.2756 39.8084 13.2756C40.1982 13.2756 40.5882 13.1269 40.8858 12.8293C41.4807 12.2344 41.4807 11.2697 40.8858 10.675L39.6289 9.41804L40.8858 8.16111C41.4807 7.56615 41.4807 6.60151 40.8858 6.00676C40.2906 5.41181 39.3262 5.41181 38.7312 6.00676L37.4745 7.2635L36.2178 6.00676C35.6226 5.41181 34.6582 5.41181 34.0632 6.00676C33.4683 6.60171 33.4683 7.56636 34.0632 8.16111L35.3202 9.41804L34.0632 10.675C33.4679 11.2697 33.4679 12.2344 34.0628 12.8293V12.8293Z" fill="#373737"/>
<path d="M79.1652 22.8089C79.4627 23.1063 79.8527 23.2552 80.2425 23.2552C80.6323 23.2552 81.0223 23.1065 81.3199 22.8089L82.5767 21.5522L83.8334 22.8089C84.131 23.1063 84.521 23.2552 84.9108 23.2552C85.3006 23.2552 85.6906 23.1065 85.9881 22.8089C86.5831 22.214 86.5831 21.2493 85.9881 20.6546L84.7312 19.3976L85.9881 18.1407C86.5831 17.5458 86.5831 16.5811 85.9881 15.9864C85.393 15.3914 84.4286 15.3914 83.8336 15.9864L82.5769 17.2431L81.3201 15.9864C80.725 15.3914 79.7605 15.3914 79.1656 15.9864C78.5706 16.5813 78.5706 17.546 79.1656 18.1407L80.4225 19.3976L79.1656 20.6546C78.5702 21.2493 78.5702 22.214 79.1652 22.8089V22.8089Z" fill="#373737"/>
<path d="M70.7546 13.2744C74.4145 13.2744 77.3919 10.297 77.3919 6.63731C77.3916 2.97741 74.4142 0 70.7546 0C67.0949 0 64.1172 2.97741 64.1172 6.63731C64.1172 10.297 67.0946 13.2744 70.7546 13.2744ZM70.7546 3.04688C72.7342 3.04688 74.345 4.65745 74.345 6.63731C74.345 8.61697 72.7342 10.2275 70.7546 10.2275C68.7749 10.2275 67.1641 8.61697 67.1641 6.63731C67.1641 4.65745 68.7749 3.04688 70.7546 3.04688V3.04688Z" fill="#373737"/>
<path d="M51.8281 61.057C50.3603 61.057 48.975 60.5703 47.9253 59.6851C47.2822 59.1427 47.2003 58.1815 47.7429 57.5384C48.285 56.8951 49.2462 56.8135 49.8895 57.3558C50.3831 57.772 51.0891 58.0103 51.8283 58.0103H51.8385C52.5813 58.0081 53.29 57.7653 53.7834 57.3442C54.0704 57.0993 54.422 56.9796 54.7716 56.9796C55.202 56.9796 55.6298 57.161 55.931 57.5141C56.4772 58.1539 56.4013 59.1157 55.7614 59.6619C54.7125 60.5573 53.3223 61.0529 51.8472 61.0574C51.8409 61.057 51.8344 61.057 51.8281 61.057V61.057Z" fill="#373737"/>
<path d="M45.3827 52.4683H45.3685C44.5263 52.4559 43.8477 53.14 43.8416 53.9812C43.8359 54.8225 44.5202 55.5093 45.3616 55.5152H45.3723C46.2086 55.5152 46.8897 54.84 46.8956 54.0023C46.9014 53.161 46.2242 52.4742 45.3827 52.4683Z" fill="#373737"/>
<path d="M58.3336 55.4837C58.3389 55.4848 58.3444 55.4854 58.3496 55.4864C58.3935 55.4949 58.438 55.502 58.4831 55.5067C58.4977 55.5081 58.5125 55.5081 58.5272 55.5091C58.5611 55.5116 58.595 55.5148 58.6298 55.515H58.6405C58.6929 55.515 58.7447 55.5124 58.7959 55.5071C59.5651 55.4301 60.1656 54.7809 60.1656 53.9914C60.1656 53.2122 59.5804 52.5709 58.8258 52.4801C58.8189 52.4793 58.8122 52.4777 58.8053 52.4771C58.7705 52.4734 58.735 52.4724 58.6994 52.471C58.6832 52.4704 58.6673 52.4683 58.6509 52.4681H58.643C58.6428 52.4681 58.6423 52.4681 58.6421 52.4681H58.6367H58.6277C58.6271 52.4681 58.6265 52.4681 58.6259 52.4681C57.7896 52.4681 57.1157 53.1433 57.1098 53.981C57.1047 54.721 57.6336 55.3409 58.3336 55.4837V55.4837Z" fill="#373737"/>
</svg>
