<svg width="67" height="68" viewBox="0 0 67 68" fill="none" xmlns="http://www.w3.org/2000/svg">
<path d="M39.8003 23.0003L33.5003 29.3003L27.2003 23.0003C25.9003 21.7003 23.8003 21.7003 22.5003 23.0003C21.2003 24.3003 21.2003 26.4003 22.5003 27.7003L28.8003 34.0003L22.5003 40.3003C21.2003 41.6003 21.2003 43.7003 22.5003 45.0003C23.8003 46.3003 25.9003 46.3003 27.2003 45.0003L33.5003 38.7003L39.8003 45.0003C41.1003 46.3003 43.2003 46.3003 44.5003 45.0003C45.8003 43.7003 45.8003 41.6003 44.5003 40.3003L38.2003 34.0003L44.5003 27.7003C45.8003 26.4003 45.8003 24.3003 44.5003 23.0003C43.2003 21.7337 41.067 21.7337 39.8003 23.0003ZM33.5003 0.666992C15.067 0.666992 0.166992 15.567 0.166992 34.0003C0.166992 52.4337 15.067 67.3337 33.5003 67.3337C51.9337 67.3337 66.8337 52.4337 66.8337 34.0003C66.8337 15.567 51.9337 0.666992 33.5003 0.666992ZM33.5003 60.667C18.8003 60.667 6.83366 48.7003 6.83366 34.0003C6.83366 19.3003 18.8003 7.33366 33.5003 7.33366C48.2003 7.33366 60.167 19.3003 60.167 34.0003C60.167 48.7003 48.2003 60.667 33.5003 60.667Z" fill="#E74C3C"/>
</svg>
