<svg xmlns="http://www.w3.org/2000/svg" width="62.439" height="63.587" viewBox="0 0 62.439 63.587">
  <g id="smile-hand-drawn-emoticon" transform="translate(-4.218 0)">
    <g id="Group_1" data-name="Group 1" transform="translate(4.218 0)">
      <path id="Path_322" data-name="Path 322" d="M55.256,6.959c-4.222-3.653-9.487-5.128-14.928-5.78C25.834-3.443,12.906,6.118,7.26,19.375c-6.085,14.289-3.19,30.239,10,39.15,13.47,9.1,31.981,5.357,42.314-6.617C70.87,38.82,68.082,18.06,55.256,6.959ZM30.43,58.881A26.617,26.617,0,0,1,11.5,46.389c-3.462-5.994-3.433-13.5-1.881-20.046C12.008,16.278,19.225,7.2,28.658,5.021c.014,0,.026,0,.04,0,3.4.1,6.98.106,10.484.485.332.1.664.207,1,.329a1.947,1.947,0,0,0,1.441.01,22.571,22.571,0,0,1,10.471,4.272c6.815,5.362,10.407,15.031,10.21,23.5C61.934,49.585,45.551,61.033,30.43,58.881Z" transform="translate(-4.218 0)" fill="#373737"/>
      <path id="Path_323" data-name="Path 323" d="M154.194,180.722c3.168,0,3.168-4.913,0-4.913S151.026,180.722,154.194,180.722Z" transform="translate(-131.733 -151.885)" fill="#373737"/>
      <path id="Path_324" data-name="Path 324" d="M278.748,182.526c3.167,0,3.167-4.913,0-4.913S275.579,182.526,278.748,182.526Z" transform="translate(-239.337 -153.444)" fill="#373737"/>
      <path id="Path_325" data-name="Path 325" d="M152.844,269.069c-5.885,5.848-13.478,5.265-19.371-.246-2.311-2.161-5.792,1.306-3.474,3.474,7.842,7.334,18.515,8,26.319.245C158.568,270.307,155.093,266.834,152.844,269.069Z" transform="translate(-112.223 -231.652)" fill="#373737"/>
    </g>
  </g>
</svg>
