<svg xmlns="http://www.w3.org/2000/svg" width="61.391" height="61.363" viewBox="0 0 61.391 61.363"><g transform="translate(0.001 -0.116)"><path d="M40.946,189.51l5.825-8.827-5.825-1.5a16.053,16.053,0,0,0-3.892-6.283,15.806,15.806,0,0,0-6.283-3.892l-.076.076-7.1-.28-3.154.2A15.807,15.807,0,0,0,14.16,172.9l-9.43,9.43A16.18,16.18,0,0,0,27.624,205.2l9.43-9.406A16.05,16.05,0,0,0,40.946,189.51Zm-19.681,9.329A7.195,7.195,0,0,1,11.09,188.665l9.354-9.33,5.113,5.062,5.138,5.037Z" transform="translate(0 -148.462)" fill="#605151"/><path d="M71.782,225.852l-9.43,9.406a16.188,16.188,0,0,1-22.893,0l6.359-6.359a7.192,7.192,0,0,0,10.175,0l9.43-9.406-5.138-5.037,11.5-11.5a16.052,16.052,0,0,1,3.892,6.283l5.825,1.5-5.825,8.827A16.051,16.051,0,0,1,71.782,225.852Z" transform="translate(-34.729 -178.521)" fill="#3c2f2f"/><path d="M392.569,395.109l-2.544-2.544a1.8,1.8,0,1,1,2.544-2.544l2.544,2.544a1.8,1.8,0,0,1-2.544,2.544Z" transform="translate(-342.796 -342.69)" fill="#e7e5d0"/><path d="M74.348,76.89,71.8,74.346A1.8,1.8,0,0,1,74.348,71.8l2.544,2.544a1.8,1.8,0,0,1-2.543,2.544Z" transform="translate(-62.731 -62.627)" fill="#e7e5d0"/><path d="M443.912,296.675a1.8,1.8,0,0,1,2.2-1.272l3.475.932a1.8,1.8,0,0,1-.931,3.475l-3.475-.932A1.8,1.8,0,0,1,443.912,296.675Z" transform="translate(-390.632 -259.826)" fill="#e7e5d0"/><path d="M9.218,180.2a1.8,1.8,0,0,1,2.2-1.272l3.475.932a1.8,1.8,0,1,1-.931,3.475L10.49,182.4A1.8,1.8,0,0,1,9.218,180.2Z" transform="translate(-8.059 -157.318)" fill="#e7e5d0"/><path d="M296.337,449.582l-.932-3.475a1.8,1.8,0,0,1,3.475-.931l.932,3.475a1.8,1.8,0,1,1-3.475.931Z" transform="translate(-259.932 -390.521)" fill="#e7e5d0"/><path d="M179.863,14.9l-.932-3.475a1.8,1.8,0,1,1,3.475-.931l.932,3.475a1.8,1.8,0,1,1-3.475.931Z" transform="translate(-157.424 -7.956)" fill="#e7e5d0"/><path d="M200.557,4.857a16.189,16.189,0,0,0-22.893,0l-9.43,9.406a16.053,16.053,0,0,0-3.892,6.283,16.3,16.3,0,0,0,0,10.328,16.153,16.153,0,0,0,10.175,10.175l.076-.076a7.216,7.216,0,0,0,0-10.175,7.216,7.216,0,0,1,0-10.175l9.43-9.406a7.072,7.072,0,0,1,5.088-2.086,1.165,1.165,0,0,1,.585.025,6.869,6.869,0,0,1,4.5,2.06,7.216,7.216,0,0,1,0,10.175l-9.353,9.329a16.3,16.3,0,0,1,0,10.328,16.4,16.4,0,0,0,6.283-3.892l9.43-9.406A16.213,16.213,0,0,0,200.557,4.857Z" transform="translate(-143.899 0)" fill="#30bf60"/><g transform="translate(24.335 4.857)"><path d="M209.322,266.17l-.076.076a16.027,16.027,0,0,1-6.283-3.892l6.359-6.359A7.216,7.216,0,0,1,209.322,266.17Z" transform="translate(-202.963 -230.055)" fill="#249a4c"/><path d="M357.207,62.549l-9.43,9.406a16.4,16.4,0,0,1-6.283,3.892,16.3,16.3,0,0,0,0-10.328l9.353-9.329a7.216,7.216,0,0,0,0-10.175l6.359-6.359A16.212,16.212,0,0,1,357.207,62.549Z" transform="translate(-324.884 -39.656)" fill="#249a4c"/></g></g></svg>