<svg width="30" height="13" viewBox="0 0 30 13" fill="none" xmlns="http://www.w3.org/2000/svg">
<g clip-path="url(#clip0_2015_6880)">
<path d="M2.10833 4.89167C2.10833 4.56667 2.375 4.44167 2.81667 4.44167C3.45 4.44167 4.25 4.63333 4.88333 4.975V3.01667C4.19167 2.74167 3.50833 2.63333 2.81667 2.63333C1.125 2.63333 0 3.51667 0 4.99167C0 7.29167 3.16667 6.925 3.16667 7.91667C3.16667 8.3 2.83333 8.425 2.36667 8.425C1.675 8.425 0.791667 8.14167 0.0916667 7.75833V9.74167C0.866667 10.075 1.65 10.2167 2.36667 10.2167C4.1 10.2167 5.29167 9.35833 5.29167 7.86667C5.28333 5.38333 2.10833 5.825 2.10833 4.89167ZM7.74167 0.966667L5.70833 1.4L5.7 8.075C5.7 9.30834 6.625 10.2167 7.85833 10.2167C8.54167 10.2167 9.04167 10.0917 9.31667 9.94167V8.25C9.05 8.35833 7.73333 8.74167 7.73333 7.50833V4.55H9.31667V2.775H7.73333L7.74167 0.966667ZM11.9083 3.39167L11.775 2.775H9.975V10.0667H12.0583V5.125C12.55 4.48333 13.3833 4.6 13.6417 4.69167V2.775C13.375 2.675 12.4 2.49167 11.9083 3.39167ZM14.15 2.775H16.2417V10.0667H14.15V2.775ZM14.15 2.14167L16.2417 1.69167V0L14.15 0.441667V2.14167ZM20.5917 2.63333C19.775 2.63333 19.25 3.01667 18.9583 3.28333L18.85 2.76667H17.0167V12.4833L19.1 12.0417L19.1083 9.68333C19.4083 9.9 19.85 10.2083 20.5833 10.2083C22.075 10.2083 23.4333 9.00833 23.4333 6.36667C23.425 3.95 22.05 2.63333 20.5917 2.63333ZM20.0917 8.375C19.6 8.375 19.3083 8.2 19.1083 7.98333L19.1 4.89167C19.3167 4.65 19.6167 4.48333 20.0917 4.48333C20.85 4.48333 21.375 5.33333 21.375 6.425C21.375 7.54167 20.8583 8.375 20.0917 8.375ZM30 6.45C30 4.31667 28.9667 2.63333 26.9917 2.63333C25.0083 2.63333 23.8083 4.31667 23.8083 6.43333C23.8083 8.94167 25.225 10.2083 27.2583 10.2083C28.25 10.2083 29 9.98333 29.5667 9.66667V8C29 8.28333 28.35 8.45833 27.525 8.45833C26.7167 8.45833 26 8.175 25.9083 7.19167H29.9833C29.9833 7.08333 30 6.65 30 6.45ZM25.8833 5.65833C25.8833 4.71667 26.4583 4.325 26.9833 4.325C27.4917 4.325 28.0333 4.71667 28.0333 5.65833H25.8833Z" fill="#373737"/>
</g>
<defs>
<clipPath id="clip0_2015_6880">
<rect width="30" height="12.5391" fill="white"/>
</clipPath>
</defs>
</svg>
