<svg width="41" height="68" viewBox="0 0 41 68" fill="none" xmlns="http://www.w3.org/2000/svg">
<path d="M7.16667 0.666504C3.5 0.666504 0.5 3.6665 0.5 7.33317L0.533334 17.9332C0.533334 19.6998 1.23333 21.3665 2.46667 22.6332L13.8333 33.9998L2.46667 45.4332C1.23333 46.6665 0.533334 48.3665 0.533334 50.1332L0.5 60.6665C0.5 64.3332 3.5 67.3332 7.16667 67.3332H33.8333C37.5 67.3332 40.5 64.3332 40.5 60.6665V50.1332C40.5 48.3665 39.8 46.6665 38.5667 45.4332L27.1667 33.9998L38.5333 22.6665C39.8 21.3998 40.5 19.6998 40.5 17.9332V7.33317C40.5 3.6665 37.5 0.666504 33.8333 0.666504H7.16667ZM33.8333 50.3665V57.3332C33.8333 59.1665 32.3333 60.6665 30.5 60.6665H10.5C8.66667 60.6665 7.16667 59.1665 7.16667 57.3332V50.3665C7.16667 49.4665 7.53333 48.6332 8.13333 47.9998L20.5 35.6665L32.8667 48.0332C33.4667 48.6332 33.8333 49.4998 33.8333 50.3665Z" fill="#30BF60"/>
</svg>
