<svg xmlns="http://www.w3.org/2000/svg" width="100" height="100" viewBox="0 0 100 100"><path d="M214.954,0V40.315l-.976.637L202.723,29.7a7.786,7.786,0,0,0-11.013,0L173.694,47.71a7.786,7.786,0,0,0,0,11.011l5.146,5.146-.976.637H144V0Zm0,0" transform="translate(-144)" fill="#e7e5d0"/><path d="M101.544,235.176l21.631-21.631L98.319,188.688,76.688,210.319Zm0,0" transform="translate(-38.639 -150.639)" fill="#e7e5d0"/><path d="M20.768,130.753a9.4,9.4,0,0,1,13.291,0L71.427,168.12a9.4,9.4,0,0,1,0,13.291L53.411,199.427a9.4,9.4,0,0,1-13.291,0L2.753,162.06A9.463,9.463,0,0,1,0,155.414a9.332,9.332,0,0,1,2.753-6.646ZM7.118,161.865,37.09,191.836,63.836,165.09,33.865,135.118ZM42.4,197.146a6.325,6.325,0,0,0,8.731,0l18.016-18.016a6.174,6.174,0,0,0,0-8.731l-3.03-3.03L39.37,194.116ZM4.857,159.565l26.708-26.708a6.136,6.136,0,0,0-8.517.176L5.033,151.049a6.134,6.134,0,0,0-1.808,4.365A6.211,6.211,0,0,0,4.857,159.565Zm0,0" transform="translate(25.821 -102.179)"/><path d="M70.295,380.62l-2.28-2.28-9.675,9.675,2.28,2.281Zm0,0" transform="translate(17.945 -302.057)"/><path d="M231.262,281.438l-4.918-4.918,4.918-4.918,2.28,2.28L230.9,276.52l2.639,2.639Zm0,0" transform="translate(-179.177 -216.842)"/><path d="M180.52,238.505l-2.639,2.639-2.28-2.28,4.918-4.918,4.918,4.918-2.28,2.28Zm0,0" transform="translate(-120.842 -186.778)"/><path d="M124.226,297.438l-2.28-2.28,2.639-2.639-2.639-2.639,2.28-2.28,4.918,4.918Zm0,0" transform="translate(-53.73 -229.616)"/><path d="M159.6,340.624l2.28-2.28,2.639,2.639,2.639-2.639,2.279,2.28-4.918,4.918Zm0,0" transform="translate(-101.616 -270.128)"/><path d="M172.838,289.676a4.838,4.838,0,1,1,4.838-4.838A4.844,4.844,0,0,1,172.838,289.676Zm0-6.45a1.613,1.613,0,1,0,1.613,1.613A1.615,1.615,0,0,0,172.838,283.225Zm0,0" transform="translate(-111.547 -223.547)"/><path d="M144.129.664h3.225V19.881h19.325v3.225h-22.55Zm0,0" transform="translate(-95.739 -0.53)"/><path d="M176,32h9.676v9.676H176Zm3.225,6.45h3.225V35.225h-3.225Zm0,0" transform="translate(-121.16 -25.55)"/><path d="M403.3,19.454V.129h3.225v22.55H384V19.454Zm0,0" transform="translate(-383.95 -0.103)"/><path d="M416,32h9.676v9.676H416Zm3.225,6.45h3.225V35.225h-3.225Zm0,0" transform="translate(-409.55 -25.55)"/><path d="M272,40.063h9.676V32H284.9V43.288H272Zm0,0" transform="translate(-239.741 -25.55)"/><path d="M307.225,41.739H304V24h12.9v3.225h-9.676Zm0,0" transform="translate(-278.193 -19.162)"/><path d="M425.676,134.45H422.45v-3.225H416V128h9.676Zm0,0" transform="translate(-409.55 -102.193)"/><path d="M419.225,163.225h6.45v3.225H416V160h3.225Zm0,0" transform="translate(-409.55 -127.742)"/><path d="M275.225,104H272v3.225h3.225Zm0,0" transform="translate(-230.064 -83.032)"/><path d="M307.225,104H304v3.225h3.225Zm0,0" transform="translate(-268.516 -83.032)"/><path d="M179.225,128H176v3.225h3.225Zm0,0" transform="translate(-114.709 -102.193)"/><path d="M425.676,243.225h-6.45v6.45H416V240h9.676Zm0,0" transform="translate(-409.55 -191.612)"/><path d="M390.45,240h3.225v9.676H384V246.45h6.45Zm0,0" transform="translate(-371.099 -191.612)"/><path d="M451.225,208H448v3.225h3.225Zm0,0" transform="translate(-441.55 -166.064)"/><path d="M419.225,208H416v3.225h3.225Zm0,0" transform="translate(-403.099 -166.064)"/><path d="M387.225,208H384v3.225h3.225Zm0,0" transform="translate(-364.645 -166.064)"/><path d="M352,128h9.676v3.225h-6.45V140.9H352Zm0,0" transform="translate(-332.645 -102.193)"/><path d="M326.45,136h3.225v8.063H320v-3.225h6.45Zm0,0" transform="translate(-294.193 -108.58)"/></svg>