<svg xmlns="http://www.w3.org/2000/svg" viewBox="0 0 48 48">
  <path fill="#ffca28" d="M44,24c0,11-9,20-20,20S4,35,4,24S13,4,24,4S44,13,44,24z"/>
  <path fill="#ff3d00" d="M37.005,32.609l-3.584-3.26l-0.136,1.726l-4.319,2.701l3.818,3.473	c1.281,1.166,3.265,1.072,4.431-0.209C38.38,35.758,38.286,33.774,37.005,32.609z"/>
  <path fill="#b76c09" d="M13.8,20.6l-1.6-1.2C12.3,19.3,14,17,17,17s4.7,2.3,4.8,2.4l-1.6,1.2c0,0-1.3-1.6-3.2-1.6	S13.8,20.6,13.8,20.6z M27.8,20.6l-1.6-1.2C26.3,19.3,28,17,31,17s4.7,2.3,4.8,2.4l-1.6,1.2c0,0-1.3-1.6-3.2-1.6	S27.8,20.6,27.8,20.6z"/>
  <path fill="#b76c09" d="M32.712,28.234C31.703,32.182,28.122,35,24,35c-4.112,0-7.703-2.822-8.712-6.766h-2.06	C14.277,33.314,18.803,37,24,37c5.209,0,9.718-3.681,10.769-8.766H32.712z"/>
  <path fill="#dd2c00" d="M32.612,28.611c-0.639,2.111-2.026,3.865-3.827,4.999L30.312,35c1.729-1.213,3.103-2.915,3.906-4.927	L32.612,28.611z"/>
</svg>