<svg xmlns="http://www.w3.org/2000/svg" viewBox="0 0 48 48">
  <path fill="#ffca28" d="M44,24c0,11-9,20-20,20S4,35,4,24S13,4,24,4S44,13,44,24z"/>
  <path fill="#fff" d="M9 29c0-2 3-4 3-4 0 2 1 3 1 4 0 1.1-.9 2-2 2S9 30.1 9 29zM40 31c0-2-3-4-3-4 0 2-1 3-1 4 0 1.1.9 2 2 2S40 32.1 40 31z"/>
  <path fill="#c62828" d="M29,36c0-2.8-2.2-5-5-5s-5,2.2-5,5H29z"/>
  <path fill="#b76c09" d="M13.8 24.6l-1.6-1.2C12.3 23.3 14 21 17 21s4.7 2.3 4.8 2.4l-1.6 1.2c0 0-1.3-1.6-3.2-1.6S13.8 24.6 13.8 24.6zM27.8 24.6l-1.6-1.2C26.3 23.3 28 21 31 21s4.7 2.3 4.8 2.4l-1.6 1.2c0 0-1.3-1.6-3.2-1.6S27.8 24.6 27.8 24.6z"/>
</svg>
