<svg xmlns="http://www.w3.org/2000/svg" width="215.656" height="169.984">
  <defs>
    <radialGradient fx="0" fy="0" cx="0" cy="0" r="1" gradientUnits="userSpaceOnUse" gradientTransform="matrix(25.64709 0 0 -25.64709 219.944 361.928)" spreadMethod="pad" id="v">
      <stop offset="0" stop-color="#4dbf5e"/>
      <stop offset=".274" stop-color="#4dbf5e"/>
      <stop offset=".731" stop-color="#59caf5"/>
      <stop offset="1" stop-color="#59caf5"/>
    </radialGradient>
    <radialGradient fx="0" fy="0" cx="0" cy="0" r="1" gradientUnits="userSpaceOnUse" gradientTransform="matrix(36.43984 0 0 -36.43984 218.345 335.36)" spreadMethod="pad" id="w">
      <stop offset="0" stop-color="#b3e5e4"/>
      <stop offset=".969" stop-color="#40c1f3"/>
      <stop offset="1" stop-color="#40c1f3"/>
    </radialGradient>
    <radialGradient fx="0" fy="0" cx="0" cy="0" r="1" gradientUnits="userSpaceOnUse" gradientTransform="matrix(26.17939 18.41343 13.50283 -19.19787 222.356 363.631)" spreadMethod="pad" id="x">
      <stop offset="0" stop-color="#4dbf5c"/>
      <stop offset=".375" stop-color="#4dbf5c"/>
      <stop offset="1" stop-color="#5ac1ea"/>
    </radialGradient>
    <radialGradient fx="0" fy="0" cx="0" cy="0" r="1" gradientUnits="userSpaceOnUse" gradientTransform="matrix(66.77959 0 0 -66.77959 207.662 329.457)" spreadMethod="pad" id="B">
      <stop offset="0" stop-color="#59caf5"/>
      <stop offset="1" stop-color="#269bd4"/>
    </radialGradient>
    <radialGradient fx="0" fy="0" cx="0" cy="0" r="1" gradientUnits="userSpaceOnUse" gradientTransform="matrix(66.778 0 0 -66.778 207.663 329.457)" spreadMethod="pad" id="C">
      <stop offset="0" stop-color="#59caf5"/>
      <stop offset="1" stop-color="#269bd4"/>
    </radialGradient>
    <radialGradient fx="0" fy="0" cx="0" cy="0" r="1" gradientUnits="userSpaceOnUse" gradientTransform="matrix(66.778 0 0 -66.778 207.663 329.457)" spreadMethod="pad" id="D">
      <stop offset="0" stop-color="#59caf5"/>
      <stop offset="1" stop-color="#269bd4"/>
    </radialGradient>
    <radialGradient fx="0" fy="0" cx="0" cy="0" r="1" gradientUnits="userSpaceOnUse" gradientTransform="matrix(66.80492 0 0 -66.80492 207.662 329.458)" spreadMethod="pad" id="E">
      <stop offset="0" stop-color="#59caf5"/>
      <stop offset="1" stop-color="#269bd4"/>
    </radialGradient>
    <radialGradient fx="0" fy="0" cx="0" cy="0" r="1" gradientUnits="userSpaceOnUse" gradientTransform="matrix(66.7796 0 0 -66.7796 207.662 329.456)" spreadMethod="pad" id="F">
      <stop offset="0" stop-color="#59caf5"/>
      <stop offset="1" stop-color="#269bd4"/>
    </radialGradient>
    <radialGradient fx="0" fy="0" cx="0" cy="0" r="1" gradientUnits="userSpaceOnUse" gradientTransform="matrix(66.7782 0 0 -66.7782 207.663 329.456)" spreadMethod="pad" id="G">
      <stop offset="0" stop-color="#59caf5"/>
      <stop offset="1" stop-color="#269bd4"/>
    </radialGradient>
    <radialGradient fx="0" fy="0" cx="0" cy="0" r="1" gradientUnits="userSpaceOnUse" gradientTransform="matrix(66.7782 0 0 -66.7782 207.663 329.456)" spreadMethod="pad" id="H">
      <stop offset="0" stop-color="#59caf5"/>
      <stop offset="1" stop-color="#269bd4"/>
    </radialGradient>
    <radialGradient fx="0" fy="0" cx="0" cy="0" r="1" gradientUnits="userSpaceOnUse" gradientTransform="matrix(66.77929 0 0 -66.77929 207.662 329.456)" spreadMethod="pad" id="I">
      <stop offset="0" stop-color="#59caf5"/>
      <stop offset="1" stop-color="#269bd4"/>
    </radialGradient>
    <radialGradient fx="0" fy="0" cx="0" cy="0" r="1" gradientUnits="userSpaceOnUse" gradientTransform="matrix(66.77979 0 0 -66.77979 207.663 329.456)" spreadMethod="pad" id="J">
      <stop offset="0" stop-color="#59caf5"/>
      <stop offset="1" stop-color="#269bd4"/>
    </radialGradient>
    <radialGradient fx="0" fy="0" cx="0" cy="0" r="1" gradientUnits="userSpaceOnUse" gradientTransform="matrix(66.77902 0 0 -66.77902 207.663 329.456)" spreadMethod="pad" id="K">
      <stop offset="0" stop-color="#59caf5"/>
      <stop offset="1" stop-color="#2aabe8"/>
    </radialGradient>
    <radialGradient fx="0" fy="0" cx="0" cy="0" r="1" gradientUnits="userSpaceOnUse" gradientTransform="scale(53.31088 -53.31088) rotate(-45 -5.3 -8.697)" spreadMethod="pad" id="N">
      <stop offset="0" stop-color="#bfdf14"/>
      <stop offset="1" stop-color="#33b652"/>
    </radialGradient>
    <radialGradient fx="0" fy="0" cx="0" cy="0" r="1" gradientUnits="userSpaceOnUse" gradientTransform="matrix(57.35858 0 0 -57.35858 213.066 376.891)" spreadMethod="pad" id="Q">
      <stop offset="0" stop-color="#fff"/>
      <stop offset="1" stop-color="#4cc1f0"/>
    </radialGradient>
    <radialGradient fx="0" fy="0" cx="0" cy="0" r="1" gradientUnits="userSpaceOnUse" gradientTransform="matrix(57.35858 0 0 -57.35858 213.066 376.891)" spreadMethod="pad" id="R">
      <stop offset="0" stop-color="#4dbf5e"/>
      <stop offset=".375" stop-color="#4dbf5e"/>
      <stop offset="1" stop-color="#59caf5"/>
    </radialGradient>
    <linearGradient x1="0" y1="0" x2="1" y2="0" gradientUnits="userSpaceOnUse" gradientTransform="scale(-40.26289 40.26289) rotate(2.49 -177.41 -122.406)" spreadMethod="pad" id="c">
      <stop offset="0" stop-color="#fff"/>
      <stop offset="1" stop-color="#231f20"/>
    </linearGradient>
    <linearGradient x1="0" y1="0" x2="1" y2="0" gradientUnits="userSpaceOnUse" gradientTransform="scale(-40.26109 40.26109) rotate(2.49 -190.66 -122.7)" spreadMethod="pad" id="d">
      <stop offset="0" stop-color="#fff"/>
      <stop offset="1" stop-color="#231f20"/>
    </linearGradient>
    <linearGradient x1="0" y1="0" x2="1" y2="0" gradientUnits="userSpaceOnUse" gradientTransform="scale(-40.26109 40.26109) rotate(2.49 -190.66 -122.7)" spreadMethod="pad" id="e">
      <stop offset="0" stop-color="#fff"/>
      <stop offset="1" stop-color="#231f20"/>
    </linearGradient>
    <linearGradient x1="0" y1="0" x2="1" y2="0" gradientUnits="userSpaceOnUse" gradientTransform="scale(-40.25712 40.25712) rotate(2.49 -188.067 -122.654)" spreadMethod="pad" id="f">
      <stop offset="0" stop-color="#fff"/>
      <stop offset="1" stop-color="#231f20"/>
    </linearGradient>
    <linearGradient x1="0" y1="0" x2="1" y2="0" gradientUnits="userSpaceOnUse" gradientTransform="scale(-40.2627 40.2627) rotate(2.49 -189.583 -122.671)" spreadMethod="pad" id="g">
      <stop offset="0" stop-color="#fff"/>
      <stop offset="1" stop-color="#231f20"/>
    </linearGradient>
    <linearGradient x1="0" y1="0" x2="1" y2="0" gradientUnits="userSpaceOnUse" gradientTransform="scale(-40.26214 40.26214) rotate(2.49 -188.999 -122.66)" spreadMethod="pad" id="h">
      <stop offset="0" stop-color="#fff"/>
      <stop offset="1" stop-color="#231f20"/>
    </linearGradient>
    <linearGradient x1="0" y1="0" x2="1" y2="0" gradientUnits="userSpaceOnUse" gradientTransform="scale(-40.26214 40.26214) rotate(2.49 -188.999 -122.66)" spreadMethod="pad" id="i">
      <stop offset="0" stop-color="#fff"/>
      <stop offset="1" stop-color="#231f20"/>
    </linearGradient>
    <linearGradient x1="0" y1="0" x2="1" y2="0" gradientUnits="userSpaceOnUse" gradientTransform="scale(-40.26263 40.26263) rotate(2.49 -187.894 -122.635)" spreadMethod="pad" id="j">
      <stop offset="0" stop-color="#fff"/>
      <stop offset="1" stop-color="#231f20"/>
    </linearGradient>
    <linearGradient x1="0" y1="0" x2="1" y2="0" gradientUnits="userSpaceOnUse" gradientTransform="scale(-40.26196 40.26196) rotate(2.49 -205.765 -123.025)" spreadMethod="pad" id="k">
      <stop offset="0" stop-color="#fff"/>
      <stop offset="1" stop-color="#231f20"/>
    </linearGradient>
    <linearGradient x1="0" y1="0" x2="1" y2="0" gradientUnits="userSpaceOnUse" gradientTransform="scale(-40.26228 40.26228) rotate(2.49 -195.586 -122.803)" spreadMethod="pad" id="l">
      <stop offset="0" stop-color="#fff"/>
      <stop offset="1" stop-color="#231f20"/>
    </linearGradient>
    <linearGradient x1="0" y1="0" x2="1" y2="0" gradientUnits="userSpaceOnUse" gradientTransform="scale(103.00537 -103.00537) rotate(-17.729 -8.992 -9.465)" spreadMethod="pad" id="p">
      <stop offset="0" stop-color="#fff"/>
      <stop offset="1" stop-color="#231f20"/>
    </linearGradient>
    <linearGradient x1="0" y1="0" x2="1" y2="0" gradientUnits="userSpaceOnUse" gradientTransform="matrix(61.97644 0 0 -61.97644 191.69 353.701)" spreadMethod="pad" id="s">
      <stop offset="0" stop-color="#fff"/>
      <stop offset="1" stop-color="#231f20"/>
    </linearGradient>
    <linearGradient x1="0" y1="0" x2="1" y2="0" gradientUnits="userSpaceOnUse" gradientTransform="matrix(61.97644 0 0 -61.97644 191.69 353.701)" spreadMethod="pad" id="t">
      <stop offset="0" stop-color="#fff"/>
      <stop offset="1" stop-color="#231f20"/>
    </linearGradient>
    <clipPath clipPathUnits="userSpaceOnUse" id="u">
      <path d="M0 595.276h464.935V0H0z"/>
    </clipPath>
    <clipPath clipPathUnits="userSpaceOnUse" id="y">
      <path d="M0 595.276h464.935V0H0z"/>
    </clipPath>
    <clipPath clipPathUnits="userSpaceOnUse" id="a">
      <path d="M191.69 373.822h77.711v-72.581H191.69z"/>
    </clipPath>
    <clipPath clipPathUnits="userSpaceOnUse" id="b">
      <path d="M191.69 373.822h77.711v-72.581H191.69z"/>
    </clipPath>
    <clipPath clipPathUnits="userSpaceOnUse" id="A">
      <path d="M191.69 373.822h77.711v-72.581H191.69z"/>
    </clipPath>
    <clipPath clipPathUnits="userSpaceOnUse" id="m">
      <path d="M215.461 358.166h61.761v-56.925h-61.761z"/>
    </clipPath>
    <clipPath clipPathUnits="userSpaceOnUse" id="n">
      <path d="M215.461 358.166h61.762v-56.925h-61.762z"/>
    </clipPath>
    <clipPath clipPathUnits="userSpaceOnUse" id="o">
      <path d="M215.461 358.166h61.761v-56.925h-61.761z"/>
    </clipPath>
    <clipPath clipPathUnits="userSpaceOnUse" id="M">
      <path d="M215.461 358.166h61.761v-56.925h-61.761z"/>
    </clipPath>
    <clipPath clipPathUnits="userSpaceOnUse" id="q">
      <path d="M191.69 386.586h61.976v-65.769H191.69z"/>
    </clipPath>
    <clipPath clipPathUnits="userSpaceOnUse" id="r">
      <path d="M191.69 386.586h62.442v-65.77H191.69z"/>
    </clipPath>
    <clipPath clipPathUnits="userSpaceOnUse" id="P">
      <path d="M191.69 386.586h61.976v-65.769H191.69z"/>
    </clipPath>
    <mask maskUnits="userSpaceOnUse" x="0" y="0" width="1" height="1" id="z">
      <g clip-path="url(#a)" opacity=".7">
        <path d="M191.69 373.822h77.711v-72.581H191.69z"/>
        <g clip-path="url(#b)">
          <path d="M229.214 301.551c-7.348 1.139-14.451 4.032-20.547 8.292a42.467 42.467 0 0120.547-8.292" fill="url(#c)"/>
          <path d="M202.832 326.95a15.097 15.097 0 013.48-1.859c-3.883 1.753-6.905 4.962-8.913 9.085a14.992 14.992 0 012.633-4.225 16.917 16.917 0 012.8-3.001" fill="url(#d)"/>
          <path d="M202.832 326.95a15.097 15.097 0 013.48-1.859c-3.883 1.753-6.905 4.962-8.913 9.085a14.992 14.992 0 012.633-4.225 16.917 16.917 0 012.8-3.001" fill="url(#e)"/>
          <path d="M206.312 325.091c.405-.185.81-.381 1.242-.507-.425.151-.837.322-1.242.507" fill="url(#f)"/>
          <path d="M227.961 328.393c12.254 5.741 30.953 2.081 41.44-8.827-10.487 10.908-29.398 14.998-41.44 8.827" fill="url(#g)"/>
          <path d="M227.961 328.393c-10.417-4.882-15.227-5.32-20.407-3.809 4.27-1.517 8.154-2.472 20.407 3.809" fill="url(#h)"/>
          <path d="M227.961 328.393c-10.417-4.882-15.227-5.32-20.407-3.809 4.27-1.517 8.154-2.472 20.407 3.809" fill="url(#i)"/>
          <path d="M227.961 328.393c-12.253-6.281-16.137-5.326-20.407-3.809-.432.126-.837.322-1.242.507a15.097 15.097 0 00-3.48 1.859 16.917 16.917 0 00-2.8 3.001 14.992 14.992 0 00-2.633 4.225c-1.83 3.756-2.817 8.269-2.843 13.129-1.381-2.98-2.25-5.889-2.549-8.617 1.437-11.761 7.659-22.045 16.66-28.845 6.096-4.26 13.199-7.153 20.547-8.292a43.31 43.31 0 015.148-.31 42.47 42.47 0 0122.341 6.311 42.87 42.87 0 0112.698 12.014c-10.487 10.908-29.186 14.568-41.44 8.827" fill="url(#j)"/>
          <path d="M196.975 361.147c1.734 4.881 4.234 9.175 7.196 12.675a66.94 66.94 0 01-2.854-2.912 42.483 42.483 0 01-9.627-26.996c0-1.769.109-3.513.317-5.226.299 2.728 1.168 5.637 2.549 8.617-.023 4.429.751 9.147 2.419 13.842" fill="url(#k)"/>
          <path d="M227.961 328.393c-12.253-6.281-16.137-5.326-20.407-3.809-.432.126-.837.322-1.242.507a15.097 15.097 0 00-3.48 1.859 16.917 16.917 0 00-2.8 3.001 14.992 14.992 0 00-2.633 4.225c-1.83 3.756-2.817 8.269-2.843 13.129-.023 4.429.751 9.147 2.419 13.842 1.734 4.881 4.234 9.175 7.196 12.675a66.94 66.94 0 01-2.854-2.912 42.483 42.483 0 01-9.627-26.996c0-1.769.109-3.513.317-5.226 1.437-11.761 7.659-22.045 16.66-28.845 6.096-4.26 13.199-7.153 20.547-8.292a43.31 43.31 0 015.148-.31 42.47 42.47 0 0122.341 6.311 42.87 42.87 0 0112.698 12.014c-10.487 10.908-29.186 14.568-41.44 8.827" fill="url(#l)"/>
        </g>
      </g>
    </mask>
    <mask maskUnits="userSpaceOnUse" x="0" y="0" width="1" height="1" id="L">
      <g clip-path="url(#m)" opacity=".95">
        <path d="M215.461 358.166h61.762v-56.925h-61.762z"/>
        <g clip-path="url(#n)">
          <g clip-path="url(#o)" opacity=".85">
            <path d="M245.615 331.042c-5.788-17.96-10.476-20.797-16.085-23.464-.54-.297-1.123-.497-1.694-.713a20.88 20.88 0 00-5.172-1.571 23.303 23.303 0 00-5.622.195c-.534.032-1.061.086-1.581.158a42.501 42.501 0 0118.901-4.406 42.47 42.47 0 0122.341 6.311c11.151 6.866 18.898 18.718 20.147 32.447.067.739.257 3.1.288 3.48.011.119.018.234.026.352.019.27.033.539.042.807l.012.378c.005.277.005.553 0 .829-.002.1-.001.2-.004.301a23.133 23.133 0 01-.061 1.142c-.029.363-.07.725-.115 1.084l-.039.274c-.04.28-.084.555-.133.83-.018.095-.035.191-.054.286-.057.297-.122.591-.19.882l-.04.173c-.103.413-.131.65-.231.982-.059.309-.164.508-.307 1.006-.726 1.988-1.722 3.799-2.947 5.361-12.687-5.567-23.362-15.734-27.482-27.124" fill="url(#p)"/>
          </g>
        </g>
      </g>
    </mask>
    <mask maskUnits="userSpaceOnUse" x="0" y="0" width="1" height="1" id="O">
      <g clip-path="url(#q)">
        <path d="M191.69 386.586h62.442v-65.77H191.69z"/>
        <g clip-path="url(#r)">
          <path d="M218.876 376.266a41.178 41.178 0 0016.954 3.627c.804 0 1.6-.032 2.392-.078 1.695-.161 5.515-.262 9.496-2.012a16.608 16.608 0 003.074-1.747 8.92 8.92 0 002.033-1.827c.137-.168.264-.343.384-.52.024.059.053.113.074.173.849 2.32.243 4.865-1.377 6.858a9.198 9.198 0 01-2.098 1.886 17.125 17.125 0 01-3.174 1.803c-4.11 1.808-8.053 1.911-9.8 2.078-.819.047-1.642.079-2.472.079a42.508 42.508 0 01-17.5-3.743c-14.84-6.681-25.172-21.598-25.172-38.929a42.48 42.48 0 016.786-23.098 41.179 41.179 0 00-3.988 17.734c0 16.791 10.01 31.243 24.388 37.716" fill="url(#s)"/>
          <path d="M218.876 376.266a41.178 41.178 0 0016.954 3.627c.804 0 1.6-.032 2.392-.078 1.695-.161 5.515-.262 9.496-2.012a16.608 16.608 0 003.074-1.747 8.92 8.92 0 002.033-1.827c.137-.168.264-.343.384-.52.024.059.053.113.074.173.849 2.32.243 4.865-1.377 6.858a9.198 9.198 0 01-2.098 1.886 17.125 17.125 0 01-3.174 1.803c-4.11 1.808-8.053 1.911-9.8 2.078-.819.047-1.642.079-2.472.079a42.508 42.508 0 01-17.5-3.743c-14.84-6.681-25.172-21.598-25.172-38.929a42.48 42.48 0 016.786-23.098 41.179 41.179 0 00-3.988 17.734c0 16.791 10.01 31.243 24.388 37.716" fill="url(#t)"/>
        </g>
      </g>
    </mask>
  </defs>
  <g clip-path="url(#u)" transform="matrix(1.33333 0 0 -1.33333 -204.557 515.448)">
    <path d="M165.25 280.144c-.956 0-2.905 1.489-4.568 1.489-.923 0-1.741-.426-1.741-1.418 0-2.375 8.863-2.024 8.863-7.83 0-3.405-2.873-5.989-7.263-5.989-2.872 0-7.123 1.631-7.123 3.932 0 .78.777 2.268 2.198 2.268 1.983 0 2.868-1.737 5.276-1.737 1.561 0 2.019.498 2.019 1.454 0 2.338-8.854 1.985-8.854 7.831 0 3.544 2.866 5.954 6.907 5.954 2.514 0 6.377-1.172 6.377-3.686 0-1.171-.884-2.268-2.091-2.268M170.52 283.02c0 1.698 1.06 2.83 2.55 2.83 1.49 0 2.55-1.132 2.55-2.83v-13.61c0-1.7-1.06-2.832-2.55-2.832-1.49 0-2.55 1.133-2.55 2.833zm5.189 7.449c0-1.467-1.172-2.706-2.64-2.706-1.404 0-2.637 1.27-2.637 2.706 0 1.334 1.233 2.573 2.638 2.573 1.4 0 2.639-1.206 2.639-2.573M178.364 283.05c0 1.699 1.064 2.834 2.551 2.834 1.312 0 2.162-.71 2.34-1.915 1.238 1.347 2.87 2.128 4.748 2.128 2.126 0 3.93-.884 5.277-2.587 1.416 1.627 3.65 2.587 5.382 2.587 4.15 0 6.983-2.408 6.983-6.875v-9.778c0-1.7-1.062-2.835-2.55-2.835-1.489 0-2.552 1.135-2.552 2.835v8.893c0 2.057-1.135 3.508-2.979 3.508-1.874 0-3.008-1.451-3.008-3.508v-8.893c0-1.7-1.064-2.835-2.55-2.835-1.49 0-2.552 1.135-2.552 2.835v8.893c0 2.057-1.133 3.508-2.976 3.508-2.09 0-3.01-1.451-3.01-3.508v-8.893c0-1.7-1.064-2.835-2.553-2.835-1.487 0-2.55 1.135-2.55 2.835zM217.385 271.073c2.658 0 3.97 2.761 3.97 5.134 0 2.415-1.312 5.212-3.97 5.212-2.727 0-4.005-2.55-4.005-5.03 0-2.483 1.205-5.316 4.005-5.316m-9.105 11.978c0 1.7 1.06 2.834 2.551 2.834 1.418 0 2.232-.785 2.55-2.129.96 1.56 2.944 2.342 4.852 2.342 5.497 0 8.225-5.142 8.225-10.099 0-4.82-3.26-9.603-8.395-9.603-1.595 0-3.333.602-4.683 1.772v-6.232c0-1.702-1.06-2.838-2.549-2.838-1.49 0-2.55 1.136-2.55 2.838zM229.076 291.268c0 1.7 1.068 2.833 2.553 2.833 1.49 0 2.552-1.132 2.552-2.833v-21.824c0-1.698-1.062-2.835-2.552-2.835-1.485 0-2.553 1.137-2.553 2.835zM250.01 277.945c-.282 2.233-1.697 3.9-4.072 3.9-2.269 0-3.793-1.738-4.04-3.9zm-8.005-3.402c.356-2.515 2.445-3.683 4.82-3.683 2.62 0 4.426 2.057 5.771 2.057 1.1 0 2.093-1.099 2.093-2.198 0-2.196-4.537-4.323-8.325-4.323-5.74 0-9.566 4.182-9.566 9.811 0 5.176 3.752 9.891 9.14 9.891 5.525 0 9.175-5.037 9.175-9.284 0-1.525-.673-2.27-2.23-2.27z" fill="#59c134"/>
    <path d="M263.79 276.124c0-1.269.277-2.318.83-3.149.646-.99 1.568-1.487 2.767-1.487 1.2 0 2.123.496 2.768 1.487.554.853.831 1.904.831 3.15 0 1.198-.289 2.225-.865 3.078-.669.992-1.58 1.488-2.734 1.488-1.152 0-2.063-.496-2.73-1.488-.579-.853-.867-1.88-.867-3.079m-2.63-16.743c-1.822 0-2.73 1.328-2.73 3.983v18.36c0 2.631.908 3.948 2.73 3.948 1.038 0 1.904-.588 2.596-1.764 1.2 1.245 2.698 1.868 4.497 1.868 2.49 0 4.532-.992 6.122-2.976 1.453-1.845 2.181-4.046 2.181-6.606 0-2.56-.752-4.786-2.25-6.678-1.59-2.075-3.63-3.112-6.122-3.112-1.708 0-3.137.53-4.289 1.59v-4.635c0-2.652-.913-3.978-2.735-3.978M283.854 276.28c0-1.226.277-2.246.83-3.057.646-.95 1.545-1.423 2.698-1.423 1.13 0 2.018.474 2.665 1.423.554.834.829 1.853.829 3.058 0 1.157-.288 2.153-.864 2.986-.646.926-1.523 1.389-2.63 1.389-1.153 0-2.052-.451-2.698-1.354-.553-.811-.83-1.818-.83-3.021m7.196-7.63c-1.085-1.36-2.608-2.04-4.568-2.04-2.49 0-4.52 1.002-6.088 3.004-1.452 1.842-2.178 4.04-2.178 6.596 0 2.555.76 4.765 2.283 6.63 1.614 2.003 3.678 3.005 6.192 3.005 1.75 0 3.205-.647 4.359-1.938.622 1.176 1.487 1.765 2.594 1.765 1.799 0 2.699-1.318 2.699-3.951v-10.986c0-2.658-.9-3.986-2.7-3.986-1.13 0-1.993.634-2.593 1.902M312.496 285.672c.784 0 1.424-.237 1.92-.709.497-.474.744-1.102.744-1.886 0-.553-.15-1.188-.45-1.902l-8.302-19.718c-.621-1.476-1.418-2.215-2.387-2.215-.808 0-1.46.238-1.954.71-.496.472-.743 1.112-.743 1.92 0 .808.368 1.983 1.107 3.528a372.26 372.26 0 001.59 3.217l-5.5 12.835c-.184.437-.276 1.025-.276 1.764 0 .668.264 1.245.795 1.73.53.484 1.143.726 1.833.726.76 0 1.37-.267 1.833-.799.3-.37.612-.983.935-1.838l3.079-8.26 3.356 8.71c.552 1.458 1.36 2.187 2.42 2.187" fill="#2aabe8"/>
  </g>
  <path d="M220.277 353.764a7.503 7.503 0 017.503-7.502 7.501 7.501 0 017.504 7.502 7.504 7.504 0 11-15.007 0" fill="url(#v)" transform="matrix(1.33333 0 0 -1.33333 -204.557 515.448)"/>
  <path d="M216.862 382.843c-14.84-6.681-25.172-21.598-25.172-38.93 0-23.567 19.104-42.672 42.673-42.672a42.46 42.46 0 0122.34 6.311c11.151 6.866 18.898 18.717 20.147 32.447.067.739.257 3.099.288 3.481.011.118.018.234.025.351a24.235 24.235 0 01.055 1.185c.005.277.005.553 0 .829-.002.101-.001.201-.004.3-.01.379-.03.755-.059 1.126 0 .007-.002.012-.003.017-.028.364-.068.725-.114 1.084l-.039.274c-.04.28-.084.556-.133.83-.018.096-.035.191-.054.286-.058.297-.121.591-.191.882l-.039.173c-.103.413-.131.649-.231.981-.059.311-.164.508-.307 1.007-1.622 4.445-4.591 8.018-8.475 9.846a5.767 5.767 0 01-.238.111c-.051.025-.104.046-.157.069-.084.035-.167.072-.252.107-.156.065-.311.126-.47.186l-.091.036.072-.03c-.943.351-1.93.607-2.958.744a13.751 13.751 0 01-3.098.062l.089.01-.116-.013-.011-.001a.02.02 0 01.007.001l-.033-.004c-.083-.008-.168-.016-.251-.026-.269-.029-.535-.07-.8-.115-2.474-.421-4.822-1.493-6.894-3.079l.11.076s-1.886-1.331-3.995-4.882c-1.174-1.977-2.417-4.643-3.442-8.148-.074-.277-.15-.551-.232-.823l-.001-.005c-.665-2.443-1.581-4.243-2.46-5.778-1.108-1.937-2.267-3.417-3.984-4.831-3.424-3.185-7.718-4.996-12.208-4.806-.692.022-1.386.086-2.083.203-9.864 1.668-16.238 12.615-14.236 24.451.02.113.044.223.065.336 1.073 6.227 4.279 11.46 8.546 14.703 1.854 1.409 3.908 2.44 6.072 3.016a15.49 15.49 0 002.104.412c.926.131 1.865.177 2.811.138a16.924 16.924 0 004.39-.844c.704-.234 1.44-.522 2.206-.88 3.018-1.408 4.916-2.437 6.713-3.067a.344.344 0 01.022-.009l.016-.004c.258-.094.514-.175.771-.246a1.73 1.73 0 00.077-.022c4.16-1.109 8.362.649 9.653 4.183.849 2.32.242 4.865-1.377 6.859a9.238 9.238 0 01-2.098 1.885 17.125 17.125 0 01-3.174 1.803c-4.109 1.808-8.053 1.911-9.8 2.079-.819.046-1.641.078-2.471.078a42.5 42.5 0 01-17.501-3.743m43.604-18.897l.022.001-.022-.001m5.895-.786l-.035.013.035-.013" fill="url(#w)" transform="matrix(1.33333 0 0 -1.33333 -204.557 515.448)"/>
  <path d="M201.317 370.91a42.484 42.484 0 01-9.627-26.997c0-1.768.109-3.511.317-5.224.299 2.727 1.168 5.637 2.549 8.616-.023 4.429.751 9.147 2.419 13.842 1.734 4.882 4.234 9.175 7.195 12.675a67.498 67.498 0 01-2.853-2.912" fill="url(#x)" transform="matrix(1.33333 0 0 -1.33333 -204.557 515.448)"/>
  <g clip-path="url(#y)" transform="matrix(1.33333 0 0 -1.33333 -204.557 515.448)">
    <g mask="url(#z)">
      <g clip-path="url(#A)" opacity=".7">
        <path d="M229.214 301.551c-7.348 1.14-14.451 4.032-20.546 8.292a42.45 42.45 0 0120.546-8.292" fill="url(#B)"/>
        <path d="M202.832 326.95a15.136 15.136 0 013.48-1.859c-3.883 1.753-6.905 4.962-8.913 9.084a14.978 14.978 0 012.633-4.224 16.917 16.917 0 012.8-3.001" fill="url(#C)"/>
        <path d="M202.832 326.95a15.136 15.136 0 013.48-1.859c-3.883 1.753-6.905 4.962-8.913 9.084a14.978 14.978 0 012.633-4.224 16.917 16.917 0 012.8-3.001" fill="url(#D)"/>
        <path d="M206.312 325.091c.405-.184.81-.381 1.242-.507-.424.151-.837.323-1.242.507" fill="url(#E)"/>
        <path d="M227.961 328.392c12.254 5.742 30.953 2.081 41.44-8.826-10.487 10.907-29.397 14.999-41.44 8.826" fill="url(#F)"/>
        <path d="M227.961 328.392c-10.417-4.882-15.226-5.318-20.407-3.808 4.27-1.517 8.154-2.472 20.407 3.808" fill="url(#G)"/>
        <path d="M227.961 328.392c-10.417-4.882-15.226-5.318-20.407-3.808 4.27-1.517 8.154-2.472 20.407 3.808" fill="url(#H)"/>
        <path d="M227.961 328.392c-12.253-6.28-16.137-5.325-20.407-3.808-.432.126-.837.323-1.242.507a15.136 15.136 0 00-3.48 1.859 16.917 16.917 0 00-2.8 3.001 14.978 14.978 0 00-2.633 4.224c-1.83 3.757-2.818 8.271-2.843 13.129-1.38-2.979-2.25-5.888-2.549-8.615 1.437-11.762 7.659-22.046 16.661-28.846 6.095-4.26 13.198-7.152 20.546-8.292a43.101 43.101 0 015.148-.31 42.47 42.47 0 0122.341 6.311 42.858 42.858 0 0112.698 12.014c-10.487 10.907-29.186 14.568-41.44 8.826" fill="url(#I)"/>
        <path d="M196.975 361.147c1.735 4.882 4.234 9.175 7.196 12.675a67.522 67.522 0 01-2.854-2.912 42.483 42.483 0 01-9.627-26.996c0-1.769.109-3.513.317-5.225.299 2.727 1.169 5.636 2.549 8.615-.023 4.43.751 9.148 2.419 13.843" fill="url(#J)"/>
        <path d="M227.961 328.392c-12.253-6.28-16.137-5.325-20.407-3.808-.432.126-.837.323-1.242.507a15.136 15.136 0 00-3.48 1.859 16.917 16.917 0 00-2.8 3.001 14.978 14.978 0 00-2.633 4.224c-1.83 3.757-2.818 8.271-2.843 13.129-.023 4.43.751 9.148 2.419 13.843 1.735 4.882 4.234 9.175 7.196 12.675a67.522 67.522 0 01-2.854-2.912 42.483 42.483 0 01-9.627-26.996c0-1.769.109-3.513.317-5.225 1.437-11.762 7.659-22.046 16.661-28.846 6.095-4.26 13.198-7.152 20.546-8.292a43.101 43.101 0 015.148-.31 42.47 42.47 0 0122.341 6.311 42.858 42.858 0 0112.698 12.014c-10.487 10.907-29.186 14.568-41.44 8.826" fill="url(#K)"/>
      </g>
    </g>
    <g mask="url(#L)">
      <g clip-path="url(#M)" opacity=".95">
        <path d="M245.615 331.042c-5.788-17.96-10.476-20.797-16.085-23.464-.54-.297-1.123-.497-1.694-.713a20.839 20.839 0 00-5.172-1.571 23.253 23.253 0 00-5.622.196c-.534.031-1.061.085-1.581.158a42.489 42.489 0 0118.901-4.407 42.47 42.47 0 0122.341 6.311c11.151 6.866 18.898 18.717 20.147 32.448.066.738.257 3.098.288 3.48.011.117.018.233.025.351a24.235 24.235 0 01.055 1.185c.005.277.005.554 0 .829-.002.1-.001.2-.004.301a23.067 23.067 0 01-.061 1.142c-.029.364-.069.725-.115 1.084l-.039.274c-.04.279-.085.556-.133.83-.018.095-.035.191-.054.286-.057.297-.121.591-.191.882l-.039.174c-.103.412-.131.649-.231.98-.059.311-.164.508-.306 1.006-.727 1.989-1.723 3.801-2.949 5.362-12.686-5.568-23.361-15.734-27.481-27.124" fill="url(#N)"/>
      </g>
    </g>
    <g>
      <g mask="url(#O)">
        <g clip-path="url(#P)">
          <path d="M218.876 376.266a41.193 41.193 0 0016.953 3.626c.805 0 1.601-.031 2.393-.077 1.695-.161 5.515-.262 9.496-2.013a16.597 16.597 0 003.075-1.746 8.936 8.936 0 002.032-1.827c.137-.169.264-.344.384-.52.024.059.053.113.074.172.849 2.321.243 4.866-1.377 6.86a9.238 9.238 0 01-2.098 1.885 17.125 17.125 0 01-3.174 1.803c-4.109 1.808-8.053 1.911-9.8 2.078-.819.047-1.642.079-2.472.079a42.511 42.511 0 01-17.5-3.743c-14.839-6.681-25.172-21.598-25.172-38.929 0-8.512 2.493-16.44 6.786-23.097a41.171 41.171 0 00-3.988 17.733c0 16.791 10.01 31.243 24.388 37.716" fill="url(#Q)"/>
          <path d="M218.876 376.266a41.193 41.193 0 0016.953 3.626c.805 0 1.601-.031 2.393-.077 1.695-.161 5.515-.262 9.496-2.013a16.597 16.597 0 003.075-1.746 8.936 8.936 0 002.032-1.827c.137-.169.264-.344.384-.52.024.059.053.113.074.172.849 2.321.243 4.866-1.377 6.86a9.238 9.238 0 01-2.098 1.885 17.125 17.125 0 01-3.174 1.803c-4.109 1.808-8.053 1.911-9.8 2.078-.819.047-1.642.079-2.472.079a42.511 42.511 0 01-17.5-3.743c-14.839-6.681-25.172-21.598-25.172-38.929 0-8.512 2.493-16.44 6.786-23.097a41.171 41.171 0 00-3.988 17.733c0 16.791 10.01 31.243 24.388 37.716" fill="url(#R)"/>
        </g>
      </g>
    </g>
  </g>
</svg>
