<svg width="67" height="68" viewBox="0 0 67 68" fill="none" xmlns="http://www.w3.org/2000/svg">
<path d="M33.5003 0.666504C15.1003 0.666504 0.166992 15.5998 0.166992 33.9998C0.166992 52.3998 15.1003 67.3332 33.5003 67.3332C51.9003 67.3332 66.8337 52.3998 66.8337 33.9998C66.8337 15.5998 51.9003 0.666504 33.5003 0.666504ZM33.5003 60.6665C18.8003 60.6665 6.83366 48.6998 6.83366 33.9998C6.83366 19.2998 18.8003 7.33317 33.5003 7.33317C48.2003 7.33317 60.167 19.2998 60.167 33.9998C60.167 48.6998 48.2003 60.6665 33.5003 60.6665ZM46.4337 21.6332L26.8337 41.2332L20.567 34.9665C19.267 33.6665 17.167 33.6665 15.867 34.9665C14.567 36.2665 14.567 38.3665 15.867 39.6665L24.5003 48.2998C25.8003 49.5998 27.9003 49.5998 29.2003 48.2998L51.167 26.3332C52.467 25.0332 52.467 22.9332 51.167 21.6332C49.867 20.3332 47.7337 20.3332 46.4337 21.6332Z" fill="#30BF60"/>
</svg>
