<svg width="28" height="28" viewBox="0 0 28 28" fill="none" xmlns="http://www.w3.org/2000/svg">
<path d="M27.8247 25.8587L23.4008 6.4424C23.2779 5.82796 22.7863 5.45929 22.1719 5.45929H18.8539V3.12442C18.8539 1.77266 17.7479 0.666666 16.3961 0.666666H11.3577C10.006 0.666666 8.89999 1.77266 8.89999 3.12442V5.33641H5.70491C5.09047 5.33641 4.59892 5.82796 4.47603 6.31951L0.666504 25.8587C0.666504 26.2273 0.666504 26.596 0.91228 26.8418C1.15806 27.0876 1.52672 27.3333 1.89538 27.3333H26.5958C26.9645 27.3333 27.3332 27.2104 27.5789 26.8418C27.8247 26.596 27.9476 26.2273 27.8247 25.8587ZM11.3577 3.12442H16.3961V5.33641H11.3577V3.12442ZM6.68801 7.79416H20.0828L16.7648 24.7527H3.37004L6.68801 7.79416Z" fill="#373737"/>
</svg>
