<svg xmlns="http://www.w3.org/2000/svg" viewBox="0 0 455.001 455.001" style="enable-background:new 0 0 455.001 455.001" xml:space="preserve">
  <path d="M227.5.001C101.761.001 0 101.751 0 227.501 0 353.24 101.75 455 227.5 455c125.739 0 227.501-101.75 227.501-227.5C455.001 101.761 353.25.001 227.5.001zm0 425c-108.902 0-197.5-88.599-197.5-197.5s88.598-197.5 197.5-197.5 197.501 88.599 197.501 197.5-88.599 197.5-197.501 197.5z"/>
  <path d="M301.704 229.209c-5.987 8.545-12.854 15.821-20.735 21.932 23.004 16.63 38.004 43.68 38.004 74.171 0 13.765-37.566 29.103-91.473 29.103s-91.473-15.337-91.473-29.103c0-30.491 15-57.541 38.004-74.171-7.825-6.069-14.7-13.322-20.735-21.932-28.733 22.236-47.269 57.044-47.269 96.104 0 14.273 7.476 34.04 43.09 47.153 20.929 7.706 48.766 11.95 78.383 11.95s57.454-4.244 78.383-11.95c35.614-13.113 43.09-32.879 43.09-47.153 0-39.06-18.536-73.867-47.269-96.104z"/>
  <path d="M227.5 239.657c36.522 0 64.635-35.304 64.635-77.036 0-41.761-28.136-77.036-64.635-77.036-36.514 0-64.635 35.294-64.635 77.036 0 41.752 28.128 77.036 64.635 77.036zm0-129.677c22.188 0 40.24 23.615 40.24 52.641 0 29.027-18.052 52.642-40.24 52.642s-40.24-23.615-40.24-52.642c0-29.026 18.052-52.641 40.24-52.641z"/>
  <g/>
  <g/>
  <g/>
  <g/>
  <g/>
  <g/>
  <g/>
  <g/>
  <g/>
  <g/>
  <g/>
  <g/>
  <g/>
  <g/>
  <g/>
</svg>
