<svg width="24" height="24" viewBox="0 0 24 24" fill="none" xmlns="http://www.w3.org/2000/svg">
<g clip-path="url(#clip0)">
<path d="M13.2549 12.9354L14.3223 11.9001L14.9777 12.1181C15.8579 12.4087 16.8504 12.1907 17.5058 11.555L22.0002 6.83249L21.3635 6.21494L16.8504 10.2109L16.1949 9.57518L20.3335 5.19778L19.7343 4.63471L15.2212 8.63068L14.5657 7.99496L18.7043 3.61756L18.0489 3L13.18 7.35923C12.5245 7.99496 12.2998 8.95762 12.5994 9.8113L12.8242 10.447L3.77921 19.22C3.38596 19.6014 3.32978 20.219 3.68558 20.6186C4.07884 21.0908 4.80918 21.109 5.23989 20.6912L11.7755 14.3703L18.2736 20.6731C18.6669 21.0545 19.2848 21.109 19.7155 20.7639C20.2024 20.3824 20.2212 19.6741 19.7905 19.2563L13.2549 12.9354Z" fill="#373737"/>
<path d="M7.65556 13.2804L10.6331 10.3924L4.11623 4.07151C3.61061 3.5811 2.73046 3.70824 2.41211 4.34396C1.66305 5.86969 1.94394 7.74053 3.23608 9.01197L7.65556 13.2804Z" fill="#373737"/>
</g>
<defs>
<clipPath id="clip0">
<rect width="20" height="18" fill="white" transform="translate(2 3)"/>
</clipPath>
</defs>
</svg>
